<svg xmlns="http://www.w3.org/2000/svg" width="900" height="714" viewBox="-3 -3 58 46" font-family="monospace"><rect x="-3" y="-3" width="58" height="46" fill="#0a0a0b"/><rect x="0" y="0" width="52" height="40" fill="#101013" stroke="#3a3a40" stroke-width="0.3"/><circle cx="3.5" cy="3.5" r="1.6" fill="#0a0a0b" stroke="#86868c" stroke-width="0.25"/><circle cx="3.5" cy="3.5" r="4" fill="none" stroke="#86868c" stroke-width="0.1" stroke-dasharray="0.6 0.6" opacity="0.4"/><circle cx="48.5" cy="3.5" r="1.6" fill="#0a0a0b" stroke="#86868c" stroke-width="0.25"/><circle cx="48.5" cy="3.5" r="4" fill="none" stroke="#86868c" stroke-width="0.1" stroke-dasharray="0.6 0.6" opacity="0.4"/><circle cx="3.5" cy="36.5" r="1.6" fill="#0a0a0b" stroke="#86868c" stroke-width="0.25"/><circle cx="3.5" cy="36.5" r="4" fill="none" stroke="#86868c" stroke-width="0.1" stroke-dasharray="0.6 0.6" opacity="0.4"/><circle cx="48.5" cy="36.5" r="1.6" fill="#0a0a0b" stroke="#86868c" stroke-width="0.25"/><circle cx="48.5" cy="36.5" r="4" fill="none" stroke="#86868c" stroke-width="0.1" stroke-dasharray="0.6 0.6" opacity="0.4"/><g opacity="0.25"><line x1="48.28" y1="3.45" x2="45.08" y2="3.45" stroke="#ffffff" stroke-width="0.08"/><line x1="45.08" y1="3.45" x2="39.77" y2="8.38" stroke="#ffffff" stroke-width="0.08"/><line x1="39.77" y1="8.38" x2="39.03" y2="16.68" stroke="#ffffff" stroke-width="0.08"/><line x1="39.03" y1="16.68" x2="37.03" y2="16.68" stroke="#ffffff" stroke-width="0.08"/><line x1="37.03" y1="16.68" x2="34.81" y2="18.25" stroke="#ffffff" stroke-width="0.08"/><line x1="39.03" y1="16.68" x2="41.13" y2="20.49" stroke="#ffffff" stroke-width="0.08"/><line x1="41.13" y1="20.49" x2="43.87" y2="16.83" stroke="#ffffff" stroke-width="0.08"/><line x1="43.87" y1="16.83" x2="47.01" y2="16.9" stroke="#ffffff" stroke-width="0.08"/><line x1="34.81" y1="18.25" x2="25.59" y2="23.29" stroke="#ffffff" stroke-width="0.08"/><line x1="25.59" y1="23.29" x2="18.74" y2="19.13" stroke="#ffffff" stroke-width="0.08"/><line x1="47.47" y1="3.45" x2="16.35" y2="19.37" stroke="#ffffff" stroke-width="0.08"/><line x1="16.35" y1="19.37" x2="14.45" y2="21.37" stroke="#ffffff" stroke-width="0.08"/><line x1="14.45" y1="21.37" x2="7.45" y2="25.59" stroke="#ffffff" stroke-width="0.08"/><line x1="47.08" y1="3.45" x2="16.35" y2="21.37" stroke="#ffffff" stroke-width="0.08"/><line x1="16.35" y1="21.37" x2="14.45" y2="19.37" stroke="#ffffff" stroke-width="0.08"/><line x1="14.45" y1="19.37" x2="7.95" y2="25.59" stroke="#ffffff" stroke-width="0.08"/><line x1="46.68" y1="3.45" x2="38.03" y2="16.68" stroke="#ffffff" stroke-width="0.08"/><line x1="46.28" y1="3.45" x2="38.53" y2="16.68" stroke="#ffffff" stroke-width="0.08"/><line x1="45.88" y1="3.45" x2="44.88" y2="14.98" stroke="#ffffff" stroke-width="0.08"/><line x1="45.47" y1="3.45" x2="42.88" y2="13.38" stroke="#ffffff" stroke-width="0.08"/><line x1="44.28" y1="3.45" x2="17.47" y2="24.89" stroke="#ffffff" stroke-width="0.08"/><line x1="15.57" y1="26.89" x2="25.59" y2="20.29" stroke="#ffffff" stroke-width="0.08"/><line x1="17.47" y1="26.89" x2="18.74" y2="18.23" stroke="#ffffff" stroke-width="0.08"/><line x1="18.74" y1="18.23" x2="6.59" y2="18.81" stroke="#ffffff" stroke-width="0.08"/><line x1="16.52" y1="24.89" x2="19.92" y2="23.96" stroke="#ffffff" stroke-width="0.08"/><line x1="16.52" y1="24.89" x2="15.4" y2="21.37" stroke="#ffffff" stroke-width="0.08"/><line x1="15.4" y1="21.37" x2="6.45" y2="25.59" stroke="#ffffff" stroke-width="0.08"/></g><rect x="-3.5" y="-3.5" width="7" height="7" fill="#181a1e" stroke="#7e828a" stroke-width="0.15" opacity="0.65" transform="translate(45.68 7.1) rotate(90)"/><rect x="41.35" y="2.77" width="8.65" height="8.65" fill="none" stroke="#7e828a" stroke-width="0.08" stroke-dasharray="0.5 0.4" opacity="0.45"/><rect x="48.13" y="3.02" width="0.3" height="0.85" rx="0.12" ry="0.12" fill="#9c9ca0"/><rect x="47.73" y="3.02" width="0.3" height="0.85" rx="0.12" ry="0.12" fill="#9c9ca0"/><rect x="47.33" y="3.02" width="0.3" height="0.85" rx="0.12" ry="0.12" fill="#9c9ca0"/><rect x="46.93" y="3.02" width="0.3" height="0.85" rx="0.12" ry="0.12" fill="#9c9ca0"/><rect x="46.53" y="3.02" width="0.3" height="0.85" rx="0.12" ry="0.12" fill="#9c9ca0"/><rect x="46.13" y="3.02" width="0.3" height="0.85" rx="0.12" ry="0.12" fill="#9c9ca0"/><rect x="45.73" y="3.02" width="0.3" height="0.85" rx="0.12" ry="0.12" fill="#9c9ca0"/><rect x="45.33" y="3.02" width="0.3" height="0.85" rx="0.12" ry="0.12" fill="#9c9ca0"/><rect x="44.93" y="3.02" width="0.3" height="0.85" rx="0.12" ry="0.12" fill="#9c9ca0"/><rect x="44.53" y="3.02" width="0.3" height="0.85" rx="0.12" ry="0.12" fill="#9c9ca0"/><rect x="44.13" y="3.02" width="0.3" height="0.85" rx="0.12" ry="0.12" fill="#9c9ca0"/><rect x="43.73" y="3.02" width="0.3" height="0.85" rx="0.12" ry="0.12" fill="#9c9ca0"/><rect x="43.33" y="3.02" width="0.3" height="0.85" rx="0.12" ry="0.12" fill="#9c9ca0"/><rect x="42.93" y="3.02" width="0.3" height="0.85" rx="0.12" ry="0.12" fill="#9c9ca0"/><rect x="41.6" y="4.35" width="0.85" height="0.3" rx="0.12" ry="0.12" fill="#9c9ca0"/><rect x="41.6" y="4.75" width="0.85" height="0.3" rx="0.12" ry="0.12" fill="#9c9ca0"/><rect x="41.6" y="5.15" width="0.85" height="0.3" rx="0.12" ry="0.12" fill="#9c9ca0"/><rect x="41.6" y="5.55" width="0.85" height="0.3" rx="0.12" ry="0.12" fill="#9c9ca0"/><rect x="41.6" y="5.95" width="0.85" height="0.3" rx="0.12" ry="0.12" fill="#9c9ca0"/><rect x="41.6" y="6.35" width="0.85" height="0.3" rx="0.12" ry="0.12" fill="#9c9ca0"/><rect x="41.6" y="6.75" width="0.85" height="0.3" rx="0.12" ry="0.12" fill="#9c9ca0"/><rect x="41.6" y="7.15" width="0.85" height="0.3" rx="0.12" ry="0.12" fill="#9c9ca0"/><rect x="41.6" y="7.55" width="0.85" height="0.3" rx="0.12" ry="0.12" fill="#9c9ca0"/><rect x="41.6" y="7.95" width="0.85" height="0.3" rx="0.12" ry="0.12" fill="#9c9ca0"/><rect x="41.6" y="8.35" width="0.85" height="0.3" rx="0.12" ry="0.12" fill="#9c9ca0"/><rect x="41.6" y="8.75" width="0.85" height="0.3" rx="0.12" ry="0.12" fill="#9c9ca0"/><rect x="41.6" y="9.15" width="0.85" height="0.3" rx="0.12" ry="0.12" fill="#9c9ca0"/><rect x="41.6" y="9.55" width="0.85" height="0.3" rx="0.12" ry="0.12" fill="#9c9ca0"/><rect x="42.93" y="10.32" width="0.3" height="0.85" rx="0.12" ry="0.12" fill="#9c9ca0"/><rect x="43.33" y="10.32" width="0.3" height="0.85" rx="0.12" ry="0.12" fill="#9c9ca0"/><rect x="43.73" y="10.32" width="0.3" height="0.85" rx="0.12" ry="0.12" fill="#9c9ca0"/><rect x="44.13" y="10.32" width="0.3" height="0.85" rx="0.12" ry="0.12" fill="#9c9ca0"/><rect x="44.53" y="10.32" width="0.3" height="0.85" rx="0.12" ry="0.12" fill="#9c9ca0"/><rect x="44.93" y="10.32" width="0.3" height="0.85" rx="0.12" ry="0.12" fill="#9c9ca0"/><rect x="45.33" y="10.32" width="0.3" height="0.85" rx="0.12" ry="0.12" fill="#9c9ca0"/><rect x="45.73" y="10.32" width="0.3" height="0.85" rx="0.12" ry="0.12" fill="#9c9ca0"/><rect x="46.13" y="10.32" width="0.3" height="0.85" rx="0.12" ry="0.12" fill="#9c9ca0"/><rect x="46.53" y="10.32" width="0.3" height="0.85" rx="0.12" ry="0.12" fill="#9c9ca0"/><rect x="46.93" y="10.32" width="0.3" height="0.85" rx="0.12" ry="0.12" fill="#9c9ca0"/><rect x="47.33" y="10.32" width="0.3" height="0.85" rx="0.12" ry="0.12" fill="#9c9ca0"/><rect x="47.73" y="10.32" width="0.3" height="0.85" rx="0.12" ry="0.12" fill="#9c9ca0"/><rect x="48.13" y="10.32" width="0.3" height="0.85" rx="0.12" ry="0.12" fill="#9c9ca0"/><rect x="48.9" y="9.55" width="0.85" height="0.3" rx="0.12" ry="0.12" fill="#9c9ca0"/><rect x="48.9" y="9.15" width="0.85" height="0.3" rx="0.12" ry="0.12" fill="#9c9ca0"/><rect x="48.9" y="8.75" width="0.85" height="0.3" rx="0.12" ry="0.12" fill="#9c9ca0"/><rect x="48.9" y="8.35" width="0.85" height="0.3" rx="0.12" ry="0.12" fill="#9c9ca0"/><rect x="48.9" y="7.95" width="0.85" height="0.3" rx="0.12" ry="0.12" fill="#9c9ca0"/><rect x="48.9" y="7.55" width="0.85" height="0.3" rx="0.12" ry="0.12" fill="#9c9ca0"/><rect x="48.9" y="7.15" width="0.85" height="0.3" rx="0.12" ry="0.12" fill="#9c9ca0"/><rect x="48.9" y="6.75" width="0.85" height="0.3" rx="0.12" ry="0.12" fill="#9c9ca0"/><rect x="48.9" y="6.35" width="0.85" height="0.3" rx="0.12" ry="0.12" fill="#9c9ca0"/><rect x="48.9" y="5.95" width="0.85" height="0.3" rx="0.12" ry="0.12" fill="#9c9ca0"/><rect x="48.9" y="5.55" width="0.85" height="0.3" rx="0.12" ry="0.12" fill="#9c9ca0"/><rect x="48.9" y="5.15" width="0.85" height="0.3" rx="0.12" ry="0.12" fill="#9c9ca0"/><rect x="48.9" y="4.75" width="0.85" height="0.3" rx="0.12" ry="0.12" fill="#9c9ca0"/><rect x="48.9" y="4.35" width="0.85" height="0.3" rx="0.12" ry="0.12" fill="#9c9ca0"/><text x="45.68" y="7.1" font-size="0.9" fill="#c0c0c4" text-anchor="middle" dominant-baseline="central">U1</text><rect x="-1.45" y="-0.8" width="2.9" height="1.6" fill="#1f1d18" stroke="#9a8d63" stroke-width="0.15" opacity="0.65" transform="translate(16.52 25.89) rotate(270)"/><rect x="15.02" y="24.19" width="3" height="3.4" fill="none" stroke="#9a8d63" stroke-width="0.08" stroke-dasharray="0.5 0.4" opacity="0.45"/><rect x="15.27" y="26.62" width="0.6" height="0.55" rx="0.12" ry="0.12" fill="#9c9ca0"/><rect x="16.22" y="26.62" width="0.6" height="0.55" rx="0.12" ry="0.12" fill="#9c9ca0"/><rect x="17.17" y="26.62" width="0.6" height="0.55" rx="0.12" ry="0.12" fill="#9c9ca0"/><rect x="15.27" y="24.62" width="0.6" height="0.55" rx="0.12" ry="0.12" fill="#9c9ca0"/><rect x="16.22" y="24.62" width="0.6" height="0.55" rx="0.12" ry="0.12" fill="#9c9ca0"/><rect x="17.17" y="24.62" width="0.6" height="0.55" rx="0.12" ry="0.12" fill="#9c9ca0"/><text x="16.52" y="25.89" font-size="0.9" fill="#c0c0c4" text-anchor="middle" dominant-baseline="central">U2</text><rect x="-2.5" y="-2.5" width="5" height="5" fill="#1f1d18" stroke="#9a8d63" stroke-width="0.15" opacity="0.65" transform="translate(25.59 21.79) rotate(90)"/><rect x="22.84" y="19.04" width="5.5" height="5.5" fill="none" stroke="#9a8d63" stroke-width="0.08" stroke-dasharray="0.5 0.4" opacity="0.45"/><rect x="24.09" y="19.49" width="3" height="1.6" rx="0.12" ry="0.12" fill="#9c9ca0"/><rect x="24.09" y="22.49" width="3" height="1.6" rx="0.12" ry="0.12" fill="#9c9ca0"/><text x="25.59" y="21.79" font-size="0.9" fill="#c0c0c4" text-anchor="middle" dominant-baseline="central">L1</text><rect x="-1" y="-0.62" width="2" height="1.25" fill="#1a1a1e" stroke="#56565c" stroke-width="0.15" opacity="0.65" transform="translate(20.87 23.96) rotate(0)"/><rect x="19.17" y="23.08" width="3.4" height="1.75" fill="none" stroke="#56565c" stroke-width="0.08" stroke-dasharray="0.5 0.4" opacity="0.45"/><rect x="19.42" y="23.33" width="1" height="1.25" rx="0.12" ry="0.12" fill="#9c9ca0"/><rect x="21.32" y="23.33" width="1" height="1.25" rx="0.12" ry="0.12" fill="#9c9ca0"/><text x="20.87" y="23.96" font-size="0.9" fill="#c0c0c4" text-anchor="middle" dominant-baseline="central">C1</text><rect x="-1" y="-0.62" width="2" height="1.25" fill="#1a1a1e" stroke="#56565c" stroke-width="0.15" opacity="0.65" transform="translate(41.13 19.54) rotate(270)"/><rect x="40.26" y="17.84" width="1.75" height="3.4" fill="none" stroke="#56565c" stroke-width="0.08" stroke-dasharray="0.5 0.4" opacity="0.45"/><rect x="40.51" y="19.99" width="1.25" height="1" rx="0.12" ry="0.12" fill="#9c9ca0"/><rect x="40.51" y="18.09" width="1.25" height="1" rx="0.12" ry="0.12" fill="#9c9ca0"/><text x="41.13" y="19.54" font-size="0.9" fill="#c0c0c4" text-anchor="middle" dominant-baseline="central">C2</text><rect x="-0.5" y="-0.25" width="1" height="0.5" fill="#1a1a1e" stroke="#56565c" stroke-width="0.15" opacity="0.65" transform="translate(18.74 18.68) rotate(270)"/><rect x="18.21" y="17.7" width="1.05" height="1.95" fill="none" stroke="#56565c" stroke-width="0.08" stroke-dasharray="0.5 0.4" opacity="0.45"/><rect x="18.46" y="18.85" width="0.55" height="0.55" rx="0.12" ry="0.12" fill="#9c9ca0"/><rect x="18.46" y="17.95" width="0.55" height="0.55" rx="0.12" ry="0.12" fill="#9c9ca0"/><text x="18.74" y="18.68" font-size="0.9" fill="#c0c0c4" text-anchor="middle" dominant-baseline="central">R1</text><rect x="-0.5" y="-0.25" width="1" height="0.5" fill="#1a1a1e" stroke="#56565c" stroke-width="0.15" opacity="0.65" transform="translate(6.14 18.81) rotate(180)"/><rect x="5.16" y="18.29" width="1.95" height="1.05" fill="none" stroke="#56565c" stroke-width="0.08" stroke-dasharray="0.5 0.4" opacity="0.45"/><rect x="6.31" y="18.54" width="0.55" height="0.55" rx="0.12" ry="0.12" fill="#9c9ca0"/><rect x="5.41" y="18.54" width="0.55" height="0.55" rx="0.12" ry="0.12" fill="#9c9ca0"/><text x="6.14" y="18.81" font-size="0.9" fill="#c0c0c4" text-anchor="middle" dominant-baseline="central">R2</text><rect x="-0.5" y="-0.25" width="1" height="0.5" fill="#1a1a1e" stroke="#56565c" stroke-width="0.15" opacity="0.65" transform="translate(47.01 17.35) rotate(90)"/><rect x="46.49" y="16.37" width="1.05" height="1.95" fill="none" stroke="#56565c" stroke-width="0.08" stroke-dasharray="0.5 0.4" opacity="0.45"/><rect x="46.74" y="16.62" width="0.55" height="0.55" rx="0.12" ry="0.12" fill="#9c9ca0"/><rect x="46.74" y="17.52" width="0.55" height="0.55" rx="0.12" ry="0.12" fill="#9c9ca0"/><text x="47.01" y="17.35" font-size="0.9" fill="#c0c0c4" text-anchor="middle" dominant-baseline="central">C3</text><rect x="-0.5" y="-0.25" width="1" height="0.5" fill="#1a1a1e" stroke="#56565c" stroke-width="0.15" opacity="0.65" transform="translate(43.42 16.83) rotate(180)"/><rect x="42.44" y="16.31" width="1.95" height="1.05" fill="none" stroke="#56565c" stroke-width="0.08" stroke-dasharray="0.5 0.4" opacity="0.45"/><rect x="43.59" y="16.56" width="0.55" height="0.55" rx="0.12" ry="0.12" fill="#9c9ca0"/><rect x="42.69" y="16.56" width="0.55" height="0.55" rx="0.12" ry="0.12" fill="#9c9ca0"/><text x="43.42" y="16.83" font-size="0.9" fill="#c0c0c4" text-anchor="middle" dominant-baseline="central">C4</text><rect x="-4.5" y="-3.75" width="9" height="7.5" fill="#16191b" stroke="#6a7074" stroke-width="0.15" opacity="0.65" transform="translate(7.7 23.99) rotate(0)"/><rect x="2.55" y="19.99" width="10.3" height="8" fill="none" stroke="#6a7074" stroke-width="0.08" stroke-dasharray="0.5 0.4" opacity="0.45"/><rect x="5.8" y="24.94" width="0.3" height="1.3" rx="0.12" ry="0.12" fill="#9c9ca0"/><rect x="6.3" y="24.94" width="0.3" height="1.3" rx="0.12" ry="0.12" fill="#9c9ca0"/><rect x="6.8" y="24.94" width="0.3" height="1.3" rx="0.12" ry="0.12" fill="#9c9ca0"/><rect x="7.3" y="24.94" width="0.3" height="1.3" rx="0.12" ry="0.12" fill="#9c9ca0"/><rect x="7.8" y="24.94" width="0.3" height="1.3" rx="0.12" ry="0.12" fill="#9c9ca0"/><rect x="8.3" y="24.94" width="0.3" height="1.3" rx="0.12" ry="0.12" fill="#9c9ca0"/><rect x="8.8" y="24.94" width="0.3" height="1.3" rx="0.12" ry="0.12" fill="#9c9ca0"/><rect x="9.3" y="24.94" width="0.3" height="1.3" rx="0.12" ry="0.12" fill="#9c9ca0"/><rect x="2.8" y="21.89" width="1.2" height="1.8" rx="0" ry="0" fill="#74747a"/><circle cx="3.4" cy="22.79" r="0.4" fill="#0a0a0a"/><rect x="11.4" y="21.89" width="1.2" height="1.8" rx="0" ry="0" fill="#74747a"/><circle cx="12" cy="22.79" r="0.4" fill="#0a0a0a"/><text x="7.7" y="23.99" font-size="0.9" fill="#c0c0c4" text-anchor="middle" dominant-baseline="central">J1</text><rect x="-1.45" y="-0.8" width="2.9" height="1.6" fill="#1a1a1e" stroke="#56565c" stroke-width="0.15" opacity="0.65" transform="translate(15.4 20.37) rotate(90)"/><rect x="13.9" y="18.67" width="3" height="3.4" fill="none" stroke="#56565c" stroke-width="0.08" stroke-dasharray="0.5 0.4" opacity="0.45"/><rect x="16.05" y="19.1" width="0.6" height="0.55" rx="0.12" ry="0.12" fill="#9c9ca0"/><rect x="15.1" y="19.1" width="0.6" height="0.55" rx="0.12" ry="0.12" fill="#9c9ca0"/><rect x="14.15" y="19.1" width="0.6" height="0.55" rx="0.12" ry="0.12" fill="#9c9ca0"/><rect x="16.05" y="21.1" width="0.6" height="0.55" rx="0.12" ry="0.12" fill="#9c9ca0"/><rect x="15.1" y="21.1" width="0.6" height="0.55" rx="0.12" ry="0.12" fill="#9c9ca0"/><rect x="14.15" y="21.1" width="0.6" height="0.55" rx="0.12" ry="0.12" fill="#9c9ca0"/><text x="15.4" y="20.37" font-size="0.9" fill="#c0c0c4" text-anchor="middle" dominant-baseline="central">U4</text><rect x="-2" y="-2" width="4" height="4" fill="#181a1e" stroke="#7e828a" stroke-width="0.15" opacity="0.65" transform="translate(38.28 14.53) rotate(270)"/><rect x="35.45" y="11.7" width="5.65" height="5.65" fill="none" stroke="#7e828a" stroke-width="0.08" stroke-dasharray="0.5 0.4" opacity="0.45"/><rect x="36.88" y="16.25" width="0.3" height="0.85" rx="0.12" ry="0.12" fill="#9c9ca0"/><rect x="37.38" y="16.25" width="0.3" height="0.85" rx="0.12" ry="0.12" fill="#9c9ca0"/><rect x="37.88" y="16.25" width="0.3" height="0.85" rx="0.12" ry="0.12" fill="#9c9ca0"/><rect x="38.38" y="16.25" width="0.3" height="0.85" rx="0.12" ry="0.12" fill="#9c9ca0"/><rect x="38.88" y="16.25" width="0.3" height="0.85" rx="0.12" ry="0.12" fill="#9c9ca0"/><rect x="39.38" y="16.25" width="0.3" height="0.85" rx="0.12" ry="0.12" fill="#9c9ca0"/><rect x="40" y="15.63" width="0.85" height="0.3" rx="0.12" ry="0.12" fill="#9c9ca0"/><rect x="40" y="15.13" width="0.85" height="0.3" rx="0.12" ry="0.12" fill="#9c9ca0"/><rect x="40" y="14.63" width="0.85" height="0.3" rx="0.12" ry="0.12" fill="#9c9ca0"/><rect x="40" y="14.13" width="0.85" height="0.3" rx="0.12" ry="0.12" fill="#9c9ca0"/><rect x="40" y="13.63" width="0.85" height="0.3" rx="0.12" ry="0.12" fill="#9c9ca0"/><rect x="40" y="13.13" width="0.85" height="0.3" rx="0.12" ry="0.12" fill="#9c9ca0"/><rect x="39.38" y="11.95" width="0.3" height="0.85" rx="0.12" ry="0.12" fill="#9c9ca0"/><rect x="38.88" y="11.95" width="0.3" height="0.85" rx="0.12" ry="0.12" fill="#9c9ca0"/><rect x="38.38" y="11.95" width="0.3" height="0.85" rx="0.12" ry="0.12" fill="#9c9ca0"/><rect x="37.88" y="11.95" width="0.3" height="0.85" rx="0.12" ry="0.12" fill="#9c9ca0"/><rect x="37.38" y="11.95" width="0.3" height="0.85" rx="0.12" ry="0.12" fill="#9c9ca0"/><rect x="36.88" y="11.95" width="0.3" height="0.85" rx="0.12" ry="0.12" fill="#9c9ca0"/><rect x="35.7" y="13.13" width="0.85" height="0.3" rx="0.12" ry="0.12" fill="#9c9ca0"/><rect x="35.7" y="13.63" width="0.85" height="0.3" rx="0.12" ry="0.12" fill="#9c9ca0"/><rect x="35.7" y="14.13" width="0.85" height="0.3" rx="0.12" ry="0.12" fill="#9c9ca0"/><rect x="35.7" y="14.63" width="0.85" height="0.3" rx="0.12" ry="0.12" fill="#9c9ca0"/><rect x="35.7" y="15.13" width="0.85" height="0.3" rx="0.12" ry="0.12" fill="#9c9ca0"/><rect x="35.7" y="15.63" width="0.85" height="0.3" rx="0.12" ry="0.12" fill="#9c9ca0"/><text x="38.28" y="14.53" font-size="0.9" fill="#c0c0c4" text-anchor="middle" dominant-baseline="central">U3</text><rect x="-0.5" y="-0.25" width="1" height="0.5" fill="#1a1a1e" stroke="#56565c" stroke-width="0.15" opacity="0.65" transform="translate(34.81 17.8) rotate(270)"/><rect x="34.29" y="16.83" width="1.05" height="1.95" fill="none" stroke="#56565c" stroke-width="0.08" stroke-dasharray="0.5 0.4" opacity="0.45"/><rect x="34.54" y="17.98" width="0.55" height="0.55" rx="0.12" ry="0.12" fill="#9c9ca0"/><rect x="34.54" y="17.08" width="0.55" height="0.55" rx="0.12" ry="0.12" fill="#9c9ca0"/><text x="34.81" y="17.8" font-size="0.9" fill="#c0c0c4" text-anchor="middle" dominant-baseline="central">C5</text><rect x="-1.6" y="-1.25" width="3.2" height="2.5" fill="#1a181f" stroke="#74727e" stroke-width="0.15" opacity="0.65" transform="translate(43.88 14.18) rotate(180)"/><rect x="42.03" y="12.63" width="3.7" height="3.1" fill="none" stroke="#74727e" stroke-width="0.08" stroke-dasharray="0.5 0.4" opacity="0.45"/><rect x="44.38" y="14.48" width="1" height="1" rx="0.12" ry="0.12" fill="#9c9ca0"/><rect x="44.38" y="12.88" width="1" height="1" rx="0.12" ry="0.12" fill="#9c9ca0"/><rect x="42.38" y="14.48" width="1" height="1" rx="0.12" ry="0.12" fill="#9c9ca0"/><rect x="42.38" y="12.88" width="1" height="1" rx="0.12" ry="0.12" fill="#9c9ca0"/><text x="43.88" y="14.18" font-size="0.9" fill="#c0c0c4" text-anchor="middle" dominant-baseline="central">Y1</text><rect x="-1.27" y="-1.3" width="2.54" height="2.6" fill="#1a1a1e" stroke="#56565c" stroke-width="0.15" opacity="0.65" transform="translate(39.77 8.38) rotate(90)"/><rect x="38.22" y="6.86" width="3.1" height="3.04" fill="none" stroke="#56565c" stroke-width="0.08" stroke-dasharray="0.5 0.4" opacity="0.45"/><rect x="38.92" y="7.53" width="1.7" height="1.7" rx="0" ry="0" fill="#74747a"/><circle cx="39.77" cy="8.38" r="0.5" fill="#0a0a0a"/><text x="39.77" y="8.38" font-size="0.9" fill="#c0c0c4" text-anchor="middle" dominant-baseline="central">TP1</text><rect x="-1.27" y="-1.3" width="2.54" height="2.6" fill="#1a1a1e" stroke="#56565c" stroke-width="0.15" opacity="0.65" transform="translate(42.54 32.32) rotate(0)"/><rect x="41.02" y="30.77" width="3.04" height="3.1" fill="none" stroke="#56565c" stroke-width="0.08" stroke-dasharray="0.5 0.4" opacity="0.45"/><rect x="41.69" y="31.47" width="1.7" height="1.7" rx="0" ry="0" fill="#74747a"/><circle cx="42.54" cy="32.32" r="0.5" fill="#0a0a0a"/><text x="42.54" y="32.32" font-size="0.9" fill="#c0c0c4" text-anchor="middle" dominant-baseline="central">TP2</text><line x1="16.52" y1="24.89" x2="16.5" y2="23.5" stroke="#c2c2c6" stroke-width="1.5" stroke-linecap="round" opacity="0.85"/><line x1="16.5" y1="23.5" x2="18.5" y2="23.5" stroke="#c2c2c6" stroke-width="1.5" stroke-linecap="round" opacity="0.85"/><line x1="18.5" y1="23.5" x2="18.5" y2="24" stroke="#c2c2c6" stroke-width="1.5" stroke-linecap="round" opacity="0.85"/><line x1="18.5" y1="24" x2="19.92" y2="23.96" stroke="#c2c2c6" stroke-width="1.5" stroke-linecap="round" opacity="0.85"/><line x1="19.92" y1="23.96" x2="20" y2="22.5" stroke="#c2c2c6" stroke-width="1.5" stroke-linecap="round" opacity="0.85"/><line x1="20" y1="22.5" x2="15.5" y2="22.5" stroke="#c2c2c6" stroke-width="1.5" stroke-linecap="round" opacity="0.85"/><line x1="15.5" y1="22.5" x2="15.4" y2="21.37" stroke="#c2c2c6" stroke-width="1.5" stroke-linecap="round" opacity="0.85"/><line x1="15.5" y1="21.5" x2="15.5" y2="22.5" stroke="#54545a" stroke-width="1.5" stroke-linecap="round" opacity="0.85"/><line x1="15.5" y1="22.5" x2="13.5" y2="22.5" stroke="#54545a" stroke-width="1.5" stroke-linecap="round" opacity="0.85"/><line x1="13.5" y1="22.5" x2="13.5" y2="28.5" stroke="#54545a" stroke-width="1.5" stroke-linecap="round" opacity="0.85"/><line x1="13.5" y1="28.5" x2="6.5" y2="28.5" stroke="#54545a" stroke-width="1.5" stroke-linecap="round" opacity="0.85"/><line x1="6.5" y1="28.5" x2="6.45" y2="25.59" stroke="#c2c2c6" stroke-width="1.5" stroke-linecap="round" opacity="0.85"/><line x1="15.57" y1="26.89" x2="14.5" y2="27" stroke="#c2c2c6" stroke-width="0.25" stroke-linecap="round" opacity="0.85"/><line x1="14.5" y1="27" x2="14.5" y2="22.5" stroke="#c2c2c6" stroke-width="0.25" stroke-linecap="round" opacity="0.85"/><line x1="14.5" y1="22.5" x2="13.5" y2="22.5" stroke="#c2c2c6" stroke-width="0.25" stroke-linecap="round" opacity="0.85"/><line x1="13.5" y1="22.5" x2="13.5" y2="18" stroke="#c2c2c6" stroke-width="0.25" stroke-linecap="round" opacity="0.85"/><line x1="13.5" y1="18" x2="17.5" y2="18" stroke="#c2c2c6" stroke-width="0.25" stroke-linecap="round" opacity="0.85"/><line x1="17.5" y1="18" x2="17.5" y2="17" stroke="#c2c2c6" stroke-width="0.25" stroke-linecap="round" opacity="0.85"/><line x1="17.5" y1="17" x2="25.5" y2="17" stroke="#c2c2c6" stroke-width="0.25" stroke-linecap="round" opacity="0.85"/><line x1="25.5" y1="17" x2="25.59" y2="20.29" stroke="#c2c2c6" stroke-width="0.25" stroke-linecap="round" opacity="0.85"/><line x1="47.47" y1="3.45" x2="47.5" y2="2.5" stroke="#c2c2c6" stroke-width="0.25" stroke-linecap="round" opacity="0.85"/><line x1="47.5" y1="2.5" x2="39.5" y2="2.5" stroke="#c2c2c6" stroke-width="0.25" stroke-linecap="round" opacity="0.85"/><line x1="39.5" y1="2.5" x2="39.5" y2="3" stroke="#c2c2c6" stroke-width="0.25" stroke-linecap="round" opacity="0.85"/><line x1="39.5" y1="3" x2="37" y2="3" stroke="#c2c2c6" stroke-width="0.25" stroke-linecap="round" opacity="0.85"/><line x1="37" y1="3" x2="37" y2="4.5" stroke="#c2c2c6" stroke-width="0.25" stroke-linecap="round" opacity="0.85"/><line x1="37" y1="4.5" x2="36.5" y2="4.5" stroke="#c2c2c6" stroke-width="0.25" stroke-linecap="round" opacity="0.85"/><line x1="36.5" y1="4.5" x2="36.5" y2="10" stroke="#c2c2c6" stroke-width="0.25" stroke-linecap="round" opacity="0.85"/><line x1="36.5" y1="10" x2="31" y2="10" stroke="#c2c2c6" stroke-width="0.25" stroke-linecap="round" opacity="0.85"/><line x1="31" y1="10" x2="31" y2="15.5" stroke="#c2c2c6" stroke-width="0.25" stroke-linecap="round" opacity="0.85"/><line x1="31" y1="15.5" x2="18.5" y2="15.5" stroke="#c2c2c6" stroke-width="0.25" stroke-linecap="round" opacity="0.85"/><line x1="18.5" y1="15.5" x2="18.5" y2="16.5" stroke="#c2c2c6" stroke-width="0.25" stroke-linecap="round" opacity="0.85"/><line x1="18.5" y1="16.5" x2="18.5" y2="17" stroke="#54545a" stroke-width="0.25" stroke-linecap="round" opacity="0.85"/><line x1="18.5" y1="17" x2="17.5" y2="17" stroke="#54545a" stroke-width="0.25" stroke-linecap="round" opacity="0.85"/><line x1="17.5" y1="17" x2="17.5" y2="19.5" stroke="#54545a" stroke-width="0.25" stroke-linecap="round" opacity="0.85"/><line x1="17.5" y1="19.5" x2="16.35" y2="19.37" stroke="#c2c2c6" stroke-width="0.25" stroke-linecap="round" opacity="0.85"/><line x1="16.5" y1="19.5" x2="16.5" y2="18" stroke="#54545a" stroke-width="0.25" stroke-linecap="round" opacity="0.85"/><line x1="16.5" y1="18" x2="13.5" y2="18" stroke="#54545a" stroke-width="0.25" stroke-linecap="round" opacity="0.85"/><line x1="13.5" y1="18" x2="13.5" y2="21.5" stroke="#54545a" stroke-width="0.25" stroke-linecap="round" opacity="0.85"/><line x1="13.5" y1="21.5" x2="14.45" y2="21.37" stroke="#c2c2c6" stroke-width="0.25" stroke-linecap="round" opacity="0.85"/><line x1="14.5" y1="21.5" x2="14.5" y2="23" stroke="#54545a" stroke-width="0.25" stroke-linecap="round" opacity="0.85"/><line x1="14.5" y1="23" x2="14" y2="23" stroke="#54545a" stroke-width="0.25" stroke-linecap="round" opacity="0.85"/><line x1="14" y1="23" x2="14" y2="25.5" stroke="#54545a" stroke-width="0.25" stroke-linecap="round" opacity="0.85"/><line x1="14" y1="25.5" x2="13.5" y2="25.5" stroke="#c2c2c6" stroke-width="0.25" stroke-linecap="round" opacity="0.85"/><line x1="13.5" y1="25.5" x2="13.5" y2="28.5" stroke="#c2c2c6" stroke-width="0.25" stroke-linecap="round" opacity="0.85"/><line x1="13.5" y1="28.5" x2="7.5" y2="28.5" stroke="#c2c2c6" stroke-width="0.25" stroke-linecap="round" opacity="0.85"/><line x1="7.5" y1="28.5" x2="7.45" y2="25.59" stroke="#c2c2c6" stroke-width="0.25" stroke-linecap="round" opacity="0.85"/><line x1="47" y1="3.5" x2="47" y2="2.5" stroke="#54545a" stroke-width="0.25" stroke-linecap="round" opacity="0.85"/><line x1="47" y1="2.5" x2="39.5" y2="2.5" stroke="#54545a" stroke-width="0.25" stroke-linecap="round" opacity="0.85"/><line x1="39.5" y1="2.5" x2="39.5" y2="3" stroke="#54545a" stroke-width="0.25" stroke-linecap="round" opacity="0.85"/><line x1="39.5" y1="3" x2="37" y2="3" stroke="#54545a" stroke-width="0.25" stroke-linecap="round" opacity="0.85"/><line x1="37" y1="3" x2="37" y2="4.5" stroke="#54545a" stroke-width="0.25" stroke-linecap="round" opacity="0.85"/><line x1="37" y1="4.5" x2="36.5" y2="4.5" stroke="#54545a" stroke-width="0.25" stroke-linecap="round" opacity="0.85"/><line x1="36.5" y1="4.5" x2="36.5" y2="10" stroke="#54545a" stroke-width="0.25" stroke-linecap="round" opacity="0.85"/><line x1="36.5" y1="10" x2="31" y2="10" stroke="#54545a" stroke-width="0.25" stroke-linecap="round" opacity="0.85"/><line x1="31" y1="10" x2="31" y2="15.5" stroke="#54545a" stroke-width="0.25" stroke-linecap="round" opacity="0.85"/><line x1="31" y1="15.5" x2="20" y2="15.5" stroke="#54545a" stroke-width="0.25" stroke-linecap="round" opacity="0.85"/><line x1="20" y1="15.5" x2="20" y2="20" stroke="#54545a" stroke-width="0.25" stroke-linecap="round" opacity="0.85"/><line x1="20" y1="20" x2="17.5" y2="20" stroke="#54545a" stroke-width="0.25" stroke-linecap="round" opacity="0.85"/><line x1="17.5" y1="20" x2="17.5" y2="21.5" stroke="#54545a" stroke-width="0.25" stroke-linecap="round" opacity="0.85"/><line x1="17.5" y1="21.5" x2="16.35" y2="21.37" stroke="#c2c2c6" stroke-width="0.25" stroke-linecap="round" opacity="0.85"/><line x1="16.35" y1="21.37" x2="16.5" y2="20.5" stroke="#c2c2c6" stroke-width="0.25" stroke-linecap="round" opacity="0.85"/><line x1="16.5" y1="20.5" x2="16" y2="20.5" stroke="#c2c2c6" stroke-width="0.25" stroke-linecap="round" opacity="0.85"/><line x1="16" y1="20.5" x2="16" y2="19.5" stroke="#c2c2c6" stroke-width="0.25" stroke-linecap="round" opacity="0.85"/><line x1="16" y1="19.5" x2="14.45" y2="19.37" stroke="#c2c2c6" stroke-width="0.25" stroke-linecap="round" opacity="0.85"/><line x1="14.45" y1="19.37" x2="7.5" y2="19.5" stroke="#c2c2c6" stroke-width="0.25" stroke-linecap="round" opacity="0.85"/><line x1="7.5" y1="19.5" x2="7.5" y2="18" stroke="#c2c2c6" stroke-width="0.25" stroke-linecap="round" opacity="0.85"/><line x1="7.5" y1="18" x2="4.5" y2="18" stroke="#c2c2c6" stroke-width="0.25" stroke-linecap="round" opacity="0.85"/><line x1="4.5" y1="18" x2="4.5" y2="19.5" stroke="#c2c2c6" stroke-width="0.25" stroke-linecap="round" opacity="0.85"/><line x1="4.5" y1="19.5" x2="2" y2="19.5" stroke="#c2c2c6" stroke-width="0.25" stroke-linecap="round" opacity="0.85"/><line x1="2" y1="19.5" x2="2" y2="28.5" stroke="#c2c2c6" stroke-width="0.25" stroke-linecap="round" opacity="0.85"/><line x1="2" y1="28.5" x2="6" y2="28.5" stroke="#c2c2c6" stroke-width="0.25" stroke-linecap="round" opacity="0.85"/><line x1="6" y1="28.5" x2="6" y2="29" stroke="#c2c2c6" stroke-width="0.25" stroke-linecap="round" opacity="0.85"/><line x1="6" y1="29" x2="8" y2="29" stroke="#c2c2c6" stroke-width="0.25" stroke-linecap="round" opacity="0.85"/><line x1="8" y1="29" x2="7.95" y2="25.59" stroke="#c2c2c6" stroke-width="0.25" stroke-linecap="round" opacity="0.85"/><line x1="45.88" y1="3.45" x2="46" y2="2" stroke="#c2c2c6" stroke-width="0.25" stroke-linecap="round" opacity="0.85"/><line x1="46" y1="2" x2="48" y2="2" stroke="#c2c2c6" stroke-width="0.25" stroke-linecap="round" opacity="0.85"/><line x1="48" y1="2" x2="48" y2="2.5" stroke="#c2c2c6" stroke-width="0.25" stroke-linecap="round" opacity="0.85"/><line x1="48" y1="2.5" x2="50.5" y2="2.5" stroke="#c2c2c6" stroke-width="0.25" stroke-linecap="round" opacity="0.85"/><line x1="50.5" y1="2.5" x2="50.5" y2="12" stroke="#c2c2c6" stroke-width="0.25" stroke-linecap="round" opacity="0.85"/><line x1="50.5" y1="12" x2="46" y2="12" stroke="#c2c2c6" stroke-width="0.25" stroke-linecap="round" opacity="0.85"/><line x1="46" y1="12" x2="46" y2="15" stroke="#c2c2c6" stroke-width="0.25" stroke-linecap="round" opacity="0.85"/><line x1="46" y1="15" x2="44.88" y2="14.98" stroke="#c2c2c6" stroke-width="0.25" stroke-linecap="round" opacity="0.85"/><line x1="45.47" y1="3.45" x2="45.5" y2="2" stroke="#c2c2c6" stroke-width="0.25" stroke-linecap="round" opacity="0.85"/><line x1="45.5" y1="2" x2="47.5" y2="2" stroke="#54545a" stroke-width="0.25" stroke-linecap="round" opacity="0.85"/><line x1="47.5" y1="2" x2="47.5" y2="2.5" stroke="#54545a" stroke-width="0.25" stroke-linecap="round" opacity="0.85"/><line x1="47.5" y1="2.5" x2="50.5" y2="2.5" stroke="#54545a" stroke-width="0.25" stroke-linecap="round" opacity="0.85"/><line x1="50.5" y1="2.5" x2="50.5" y2="12" stroke="#54545a" stroke-width="0.25" stroke-linecap="round" opacity="0.85"/><line x1="50.5" y1="12" x2="43" y2="12" stroke="#54545a" stroke-width="0.25" stroke-linecap="round" opacity="0.85"/><line x1="43" y1="12" x2="42.88" y2="13.38" stroke="#c2c2c6" stroke-width="0.25" stroke-linecap="round" opacity="0.85"/><line x1="48.28" y1="3.45" x2="48.5" y2="1.5" stroke="#c2c2c6" stroke-width="0.8" stroke-linecap="round" opacity="0.85"/><line x1="48.5" y1="1.5" x2="45" y2="1.5" stroke="#c2c2c6" stroke-width="0.8" stroke-linecap="round" opacity="0.85"/><line x1="45" y1="1.5" x2="45.08" y2="3.45" stroke="#c2c2c6" stroke-width="0.8" stroke-linecap="round" opacity="0.85"/><line x1="45" y1="3.5" x2="45" y2="2" stroke="#54545a" stroke-width="0.8" stroke-linecap="round" opacity="0.85"/><line x1="45" y1="2" x2="41" y2="2" stroke="#54545a" stroke-width="0.8" stroke-linecap="round" opacity="0.85"/><line x1="41" y1="2" x2="41" y2="4" stroke="#54545a" stroke-width="0.8" stroke-linecap="round" opacity="0.85"/><line x1="41" y1="4" x2="40" y2="4" stroke="#54545a" stroke-width="0.8" stroke-linecap="round" opacity="0.85"/><line x1="40" y1="4" x2="40" y2="6.5" stroke="#54545a" stroke-width="0.8" stroke-linecap="round" opacity="0.85"/><line x1="40" y1="6.5" x2="39.77" y2="8.38" stroke="#c2c2c6" stroke-width="0.8" stroke-linecap="round" opacity="0.85"/><line x1="39.77" y1="8.38" x2="40" y2="10.5" stroke="#c2c2c6" stroke-width="0.8" stroke-linecap="round" opacity="0.85"/><line x1="40" y1="10.5" x2="39" y2="10.5" stroke="#c2c2c6" stroke-width="0.8" stroke-linecap="round" opacity="0.85"/><line x1="39" y1="10.5" x2="39" y2="11" stroke="#c2c2c6" stroke-width="0.8" stroke-linecap="round" opacity="0.85"/><line x1="39" y1="11" x2="35" y2="11" stroke="#c2c2c6" stroke-width="0.8" stroke-linecap="round" opacity="0.85"/><line x1="35" y1="11" x2="35" y2="16.5" stroke="#c2c2c6" stroke-width="0.8" stroke-linecap="round" opacity="0.85"/><line x1="35" y1="16.5" x2="34" y2="16.5" stroke="#c2c2c6" stroke-width="0.8" stroke-linecap="round" opacity="0.85"/><line x1="34" y1="16.5" x2="34" y2="19.5" stroke="#c2c2c6" stroke-width="0.8" stroke-linecap="round" opacity="0.85"/><line x1="34" y1="19.5" x2="39" y2="19.5" stroke="#c2c2c6" stroke-width="0.8" stroke-linecap="round" opacity="0.85"/><line x1="39" y1="19.5" x2="39.03" y2="16.68" stroke="#c2c2c6" stroke-width="0.8" stroke-linecap="round" opacity="0.85"/><line x1="39.03" y1="16.68" x2="37.03" y2="16.68" stroke="#c2c2c6" stroke-width="0.8" stroke-linecap="round" opacity="0.85"/><line x1="37.03" y1="16.68" x2="37" y2="18" stroke="#c2c2c6" stroke-width="0.8" stroke-linecap="round" opacity="0.85"/><line x1="37" y1="18" x2="36" y2="18" stroke="#c2c2c6" stroke-width="0.8" stroke-linecap="round" opacity="0.85"/><line x1="36" y1="18" x2="36" y2="18.5" stroke="#c2c2c6" stroke-width="0.8" stroke-linecap="round" opacity="0.85"/><line x1="36" y1="18.5" x2="34.81" y2="18.25" stroke="#c2c2c6" stroke-width="0.8" stroke-linecap="round" opacity="0.85"/><line x1="35" y1="18.5" x2="36" y2="18.5" stroke="#54545a" stroke-width="0.8" stroke-linecap="round" opacity="0.85"/><line x1="36" y1="18.5" x2="36" y2="19" stroke="#54545a" stroke-width="0.8" stroke-linecap="round" opacity="0.85"/><line x1="36" y1="19" x2="39" y2="19" stroke="#54545a" stroke-width="0.8" stroke-linecap="round" opacity="0.85"/><line x1="39" y1="19" x2="39" y2="20" stroke="#54545a" stroke-width="0.8" stroke-linecap="round" opacity="0.85"/><line x1="39" y1="20" x2="40" y2="20" stroke="#54545a" stroke-width="0.8" stroke-linecap="round" opacity="0.85"/><line x1="40" y1="20" x2="40" y2="20.5" stroke="#54545a" stroke-width="0.8" stroke-linecap="round" opacity="0.85"/><line x1="40" y1="20.5" x2="41.13" y2="20.49" stroke="#c2c2c6" stroke-width="0.8" stroke-linecap="round" opacity="0.85"/><line x1="41.13" y1="20.49" x2="41" y2="21.5" stroke="#c2c2c6" stroke-width="0.8" stroke-linecap="round" opacity="0.85"/><line x1="41" y1="21.5" x2="44" y2="21.5" stroke="#c2c2c6" stroke-width="0.8" stroke-linecap="round" opacity="0.85"/><line x1="44" y1="21.5" x2="43.87" y2="16.83" stroke="#c2c2c6" stroke-width="0.8" stroke-linecap="round" opacity="0.85"/><line x1="43.87" y1="16.83" x2="47.01" y2="16.9" stroke="#c2c2c6" stroke-width="0.8" stroke-linecap="round" opacity="0.85"/><line x1="47.01" y1="16.9" x2="48" y2="17" stroke="#c2c2c6" stroke-width="0.8" stroke-linecap="round" opacity="0.85"/><line x1="48" y1="17" x2="48" y2="19" stroke="#c2c2c6" stroke-width="0.8" stroke-linecap="round" opacity="0.85"/><line x1="48" y1="19" x2="47" y2="19" stroke="#c2c2c6" stroke-width="0.8" stroke-linecap="round" opacity="0.85"/><line x1="47" y1="19" x2="47" y2="20.5" stroke="#c2c2c6" stroke-width="0.8" stroke-linecap="round" opacity="0.85"/><line x1="47" y1="20.5" x2="45" y2="20.5" stroke="#c2c2c6" stroke-width="0.8" stroke-linecap="round" opacity="0.85"/><line x1="45" y1="20.5" x2="45" y2="22" stroke="#c2c2c6" stroke-width="0.8" stroke-linecap="round" opacity="0.85"/><line x1="45" y1="22" x2="35.5" y2="22" stroke="#c2c2c6" stroke-width="0.8" stroke-linecap="round" opacity="0.85"/><line x1="35.5" y1="22" x2="35.5" y2="22.5" stroke="#c2c2c6" stroke-width="0.8" stroke-linecap="round" opacity="0.85"/><line x1="35.5" y1="22.5" x2="29" y2="22.5" stroke="#c2c2c6" stroke-width="0.8" stroke-linecap="round" opacity="0.85"/><line x1="29" y1="22.5" x2="29" y2="25" stroke="#c2c2c6" stroke-width="0.8" stroke-linecap="round" opacity="0.85"/><line x1="29" y1="25" x2="25.5" y2="25" stroke="#c2c2c6" stroke-width="0.8" stroke-linecap="round" opacity="0.85"/><line x1="25.5" y1="25" x2="25.59" y2="23.29" stroke="#c2c2c6" stroke-width="0.8" stroke-linecap="round" opacity="0.85"/><line x1="25.5" y1="23.5" x2="25.5" y2="25" stroke="#54545a" stroke-width="0.8" stroke-linecap="round" opacity="0.85"/><line x1="25.5" y1="25" x2="23" y2="25" stroke="#54545a" stroke-width="0.8" stroke-linecap="round" opacity="0.85"/><line x1="23" y1="25" x2="23" y2="25.5" stroke="#54545a" stroke-width="0.8" stroke-linecap="round" opacity="0.85"/><line x1="23" y1="25.5" x2="18.5" y2="25.5" stroke="#54545a" stroke-width="0.8" stroke-linecap="round" opacity="0.85"/><line x1="18.5" y1="25.5" x2="18.5" y2="20.5" stroke="#54545a" stroke-width="0.8" stroke-linecap="round" opacity="0.85"/><line x1="18.5" y1="20.5" x2="18.74" y2="19.13" stroke="#c2c2c6" stroke-width="0.8" stroke-linecap="round" opacity="0.85"/><line x1="17.47" y1="26.89" x2="17.5" y2="28" stroke="#c2c2c6" stroke-width="0.8" stroke-linecap="round" opacity="0.85"/><line x1="17.5" y1="28" x2="14.5" y2="28" stroke="#c2c2c6" stroke-width="0.8" stroke-linecap="round" opacity="0.85"/><line x1="14.5" y1="28" x2="14.5" y2="27.5" stroke="#c2c2c6" stroke-width="0.8" stroke-linecap="round" opacity="0.85"/><line x1="14.5" y1="27.5" x2="14.5" y2="23.5" stroke="#54545a" stroke-width="0.8" stroke-linecap="round" opacity="0.85"/><line x1="14.5" y1="23.5" x2="18" y2="23.5" stroke="#54545a" stroke-width="0.8" stroke-linecap="round" opacity="0.85"/><line x1="18" y1="23.5" x2="18" y2="21" stroke="#54545a" stroke-width="0.8" stroke-linecap="round" opacity="0.85"/><line x1="18" y1="21" x2="19" y2="21" stroke="#c2c2c6" stroke-width="0.8" stroke-linecap="round" opacity="0.85"/><line x1="19" y1="21" x2="19" y2="20" stroke="#c2c2c6" stroke-width="0.8" stroke-linecap="round" opacity="0.85"/><line x1="19" y1="20" x2="20" y2="20" stroke="#c2c2c6" stroke-width="0.8" stroke-linecap="round" opacity="0.85"/><line x1="20" y1="20" x2="20" y2="18" stroke="#c2c2c6" stroke-width="0.8" stroke-linecap="round" opacity="0.85"/><line x1="20" y1="18" x2="18.74" y2="18.23" stroke="#c2c2c6" stroke-width="0.8" stroke-linecap="round" opacity="0.85"/><line x1="18.5" y1="18" x2="17" y2="18" stroke="#54545a" stroke-width="0.8" stroke-linecap="round" opacity="0.85"/><line x1="17" y1="18" x2="17" y2="17.5" stroke="#54545a" stroke-width="0.8" stroke-linecap="round" opacity="0.85"/><line x1="17" y1="17.5" x2="7.5" y2="17.5" stroke="#54545a" stroke-width="0.8" stroke-linecap="round" opacity="0.85"/><line x1="7.5" y1="17.5" x2="7.5" y2="19" stroke="#54545a" stroke-width="0.8" stroke-linecap="round" opacity="0.85"/><line x1="7.5" y1="19" x2="6.59" y2="18.81" stroke="#c2c2c6" stroke-width="0.8" stroke-linecap="round" opacity="0.85"/><line x1="46.5" y1="3.5" x2="46.5" y2="1.5" stroke="#54545a" stroke-width="0.25" stroke-linecap="round" opacity="0.85"/><line x1="46.5" y1="1.5" x2="48" y2="1.5" stroke="#54545a" stroke-width="0.25" stroke-linecap="round" opacity="0.85"/><line x1="48" y1="1.5" x2="48" y2="2" stroke="#54545a" stroke-width="0.25" stroke-linecap="round" opacity="0.85"/><line x1="48" y1="2" x2="51" y2="2" stroke="#54545a" stroke-width="0.25" stroke-linecap="round" opacity="0.85"/><line x1="51" y1="2" x2="51" y2="12.5" stroke="#54545a" stroke-width="0.25" stroke-linecap="round" opacity="0.85"/><line x1="51" y1="12.5" x2="46" y2="12.5" stroke="#54545a" stroke-width="0.25" stroke-linecap="round" opacity="0.85"/><line x1="46" y1="12.5" x2="46" y2="16" stroke="#54545a" stroke-width="0.25" stroke-linecap="round" opacity="0.85"/><line x1="46" y1="16" x2="45" y2="16" stroke="#54545a" stroke-width="0.25" stroke-linecap="round" opacity="0.85"/><line x1="45" y1="16" x2="45" y2="18" stroke="#54545a" stroke-width="0.25" stroke-linecap="round" opacity="0.85"/><line x1="45" y1="18" x2="42.5" y2="18" stroke="#54545a" stroke-width="0.25" stroke-linecap="round" opacity="0.85"/><line x1="42.5" y1="18" x2="42.5" y2="21.5" stroke="#54545a" stroke-width="0.25" stroke-linecap="round" opacity="0.85"/><line x1="42.5" y1="21.5" x2="38" y2="21.5" stroke="#54545a" stroke-width="0.25" stroke-linecap="round" opacity="0.85"/><line x1="38" y1="21.5" x2="38" y2="19.5" stroke="#54545a" stroke-width="0.25" stroke-linecap="round" opacity="0.85"/><line x1="38" y1="19.5" x2="38.03" y2="16.68" stroke="#c2c2c6" stroke-width="0.25" stroke-linecap="round" opacity="0.85"/><line x1="46.28" y1="3.45" x2="46.5" y2="1" stroke="#c2c2c6" stroke-width="0.25" stroke-linecap="round" opacity="0.85"/><line x1="46.5" y1="1" x2="49" y2="1" stroke="#c2c2c6" stroke-width="0.25" stroke-linecap="round" opacity="0.85"/><line x1="49" y1="1" x2="49" y2="2" stroke="#c2c2c6" stroke-width="0.25" stroke-linecap="round" opacity="0.85"/><line x1="49" y1="2" x2="51" y2="2" stroke="#c2c2c6" stroke-width="0.25" stroke-linecap="round" opacity="0.85"/><line x1="51" y1="2" x2="51" y2="12.5" stroke="#c2c2c6" stroke-width="0.25" stroke-linecap="round" opacity="0.85"/><line x1="51" y1="12.5" x2="46.5" y2="12.5" stroke="#c2c2c6" stroke-width="0.25" stroke-linecap="round" opacity="0.85"/><line x1="46.5" y1="12.5" x2="46.5" y2="15.5" stroke="#c2c2c6" stroke-width="0.25" stroke-linecap="round" opacity="0.85"/><line x1="46.5" y1="15.5" x2="46" y2="15.5" stroke="#c2c2c6" stroke-width="0.25" stroke-linecap="round" opacity="0.85"/><line x1="46" y1="15.5" x2="46" y2="16" stroke="#c2c2c6" stroke-width="0.25" stroke-linecap="round" opacity="0.85"/><line x1="46" y1="16" x2="41.5" y2="16" stroke="#c2c2c6" stroke-width="0.25" stroke-linecap="round" opacity="0.85"/><line x1="41.5" y1="16" x2="41.5" y2="16.5" stroke="#c2c2c6" stroke-width="0.25" stroke-linecap="round" opacity="0.85"/><line x1="41.5" y1="16.5" x2="38.53" y2="16.68" stroke="#c2c2c6" stroke-width="0.25" stroke-linecap="round" opacity="0.85"/><line x1="44.28" y1="3.45" x2="44.5" y2="2" stroke="#c2c2c6" stroke-width="0.25" stroke-linecap="round" opacity="0.85"/><line x1="44.5" y1="2" x2="37.5" y2="2" stroke="#c2c2c6" stroke-width="0.25" stroke-linecap="round" opacity="0.85"/><line x1="37.5" y1="2" x2="37.5" y2="2.5" stroke="#c2c2c6" stroke-width="0.25" stroke-linecap="round" opacity="0.85"/><line x1="37.5" y1="2.5" x2="34.5" y2="2.5" stroke="#c2c2c6" stroke-width="0.25" stroke-linecap="round" opacity="0.85"/><line x1="34.5" y1="2.5" x2="34.5" y2="4.5" stroke="#c2c2c6" stroke-width="0.25" stroke-linecap="round" opacity="0.85"/><line x1="34.5" y1="4.5" x2="30.5" y2="4.5" stroke="#c2c2c6" stroke-width="0.25" stroke-linecap="round" opacity="0.85"/><line x1="30.5" y1="4.5" x2="30.5" y2="16.5" stroke="#c2c2c6" stroke-width="0.25" stroke-linecap="round" opacity="0.85"/><line x1="30.5" y1="16.5" x2="30" y2="16.5" stroke="#c2c2c6" stroke-width="0.25" stroke-linecap="round" opacity="0.85"/><line x1="30" y1="16.5" x2="30" y2="22" stroke="#c2c2c6" stroke-width="0.25" stroke-linecap="round" opacity="0.85"/><line x1="30" y1="22" x2="30" y2="25" stroke="#54545a" stroke-width="0.25" stroke-linecap="round" opacity="0.85"/><line x1="30" y1="25" x2="26" y2="25" stroke="#54545a" stroke-width="0.25" stroke-linecap="round" opacity="0.85"/><line x1="26" y1="25" x2="26" y2="25.5" stroke="#54545a" stroke-width="0.25" stroke-linecap="round" opacity="0.85"/><line x1="26" y1="25.5" x2="23.5" y2="25.5" stroke="#54545a" stroke-width="0.25" stroke-linecap="round" opacity="0.85"/><line x1="23.5" y1="25.5" x2="18.5" y2="25.5" stroke="#c2c2c6" stroke-width="0.25" stroke-linecap="round" opacity="0.85"/><line x1="18.5" y1="25.5" x2="18.5" y2="25" stroke="#c2c2c6" stroke-width="0.25" stroke-linecap="round" opacity="0.85"/><line x1="18.5" y1="25" x2="17.47" y2="24.89" stroke="#c2c2c6" stroke-width="0.25" stroke-linecap="round" opacity="0.85"/><circle cx="15.5" cy="21.5" r="0.3" fill="#cccccc" stroke="#5e5e64" stroke-width="0.08"/><circle cx="6.5" cy="28.5" r="0.3" fill="#cccccc" stroke="#5e5e64" stroke-width="0.08"/><circle cx="18.5" cy="16.5" r="0.3" fill="#cccccc" stroke="#5e5e64" stroke-width="0.08"/><circle cx="17.5" cy="19.5" r="0.3" fill="#cccccc" stroke="#5e5e64" stroke-width="0.08"/><circle cx="16.5" cy="19.5" r="0.3" fill="#cccccc" stroke="#5e5e64" stroke-width="0.08"/><circle cx="13.5" cy="21.5" r="0.3" fill="#cccccc" stroke="#5e5e64" stroke-width="0.08"/><circle cx="14.5" cy="21.5" r="0.3" fill="#cccccc" stroke="#5e5e64" stroke-width="0.08"/><circle cx="14" cy="25.5" r="0.3" fill="#cccccc" stroke="#5e5e64" stroke-width="0.08"/><circle cx="47" cy="3.5" r="0.3" fill="#cccccc" stroke="#5e5e64" stroke-width="0.08"/><circle cx="17.5" cy="21.5" r="0.3" fill="#cccccc" stroke="#5e5e64" stroke-width="0.08"/><circle cx="45.5" cy="2" r="0.3" fill="#cccccc" stroke="#5e5e64" stroke-width="0.08"/><circle cx="43" cy="12" r="0.3" fill="#cccccc" stroke="#5e5e64" stroke-width="0.08"/><circle cx="45" cy="3.5" r="0.3" fill="#cccccc" stroke="#5e5e64" stroke-width="0.08"/><circle cx="40" cy="6.5" r="0.3" fill="#cccccc" stroke="#5e5e64" stroke-width="0.08"/><circle cx="35" cy="18.5" r="0.3" fill="#cccccc" stroke="#5e5e64" stroke-width="0.08"/><circle cx="40" cy="20.5" r="0.3" fill="#cccccc" stroke="#5e5e64" stroke-width="0.08"/><circle cx="25.5" cy="23.5" r="0.3" fill="#cccccc" stroke="#5e5e64" stroke-width="0.08"/><circle cx="18.5" cy="20.5" r="0.3" fill="#cccccc" stroke="#5e5e64" stroke-width="0.08"/><circle cx="14.5" cy="27.5" r="0.3" fill="#cccccc" stroke="#5e5e64" stroke-width="0.08"/><circle cx="18" cy="21" r="0.3" fill="#cccccc" stroke="#5e5e64" stroke-width="0.08"/><circle cx="18.5" cy="18" r="0.3" fill="#cccccc" stroke="#5e5e64" stroke-width="0.08"/><circle cx="7.5" cy="19" r="0.3" fill="#cccccc" stroke="#5e5e64" stroke-width="0.08"/><circle cx="46.5" cy="3.5" r="0.3" fill="#cccccc" stroke="#5e5e64" stroke-width="0.08"/><circle cx="38" cy="19.5" r="0.3" fill="#cccccc" stroke="#5e5e64" stroke-width="0.08"/><circle cx="30" cy="22" r="0.3" fill="#cccccc" stroke="#5e5e64" stroke-width="0.08"/><circle cx="23.5" cy="25.5" r="0.3" fill="#cccccc" stroke="#5e5e64" stroke-width="0.08"/><text x="0.5" y="-1.4" font-size="1.6" fill="#ececed" font-weight="bold">buck_imu</text></svg>