<svg xmlns="http://www.w3.org/2000/svg" width="900" height="691" viewBox="-3 -3 138 106" font-family="monospace"><defs><radialGradient id="heatHigh"><stop offset="0%" stop-color="#c89038" stop-opacity="0.85"/><stop offset="50%" stop-color="#b0832f" stop-opacity="0.45"/><stop offset="100%" stop-color="#b0832f" stop-opacity="0"/></radialGradient><radialGradient id="heatMed"><stop offset="0%" stop-color="#b0832f" stop-opacity="0.7"/><stop offset="55%" stop-color="#8f7a44" stop-opacity="0.35"/><stop offset="100%" stop-color="#8f7a44" stop-opacity="0"/></radialGradient><radialGradient id="heatLow"><stop offset="0%" stop-color="#9a8a52" stop-opacity="0.55"/><stop offset="60%" stop-color="#b0a06a" stop-opacity="0.25"/><stop offset="100%" stop-color="#b0a06a" stop-opacity="0"/></radialGradient></defs><rect x="-3" y="-3" width="138" height="106" fill="#0a0a0b"/><rect x="0" y="0" width="132" height="100" fill="#0c0c0e" stroke="#2a2a2f" stroke-width="0.3"/><circle cx="3.5" cy="3.5" r="1.6" fill="#0a0a0b" stroke="#86868c" stroke-width="0.25"/><circle cx="3.5" cy="3.5" r="4" fill="none" stroke="#86868c" stroke-width="0.1" stroke-dasharray="0.6 0.6" opacity="0.4"/><circle cx="128.5" cy="3.5" r="1.6" fill="#0a0a0b" stroke="#86868c" stroke-width="0.25"/><circle cx="128.5" cy="3.5" r="4" fill="none" stroke="#86868c" stroke-width="0.1" stroke-dasharray="0.6 0.6" opacity="0.4"/><circle cx="3.5" cy="96.5" r="1.6" fill="#0a0a0b" stroke="#86868c" stroke-width="0.25"/><circle cx="3.5" cy="96.5" r="4" fill="none" stroke="#86868c" stroke-width="0.1" stroke-dasharray="0.6 0.6" opacity="0.4"/><circle cx="128.5" cy="96.5" r="1.6" fill="#0a0a0b" stroke="#86868c" stroke-width="0.25"/><circle cx="128.5" cy="96.5" r="4" fill="none" stroke="#86868c" stroke-width="0.1" stroke-dasharray="0.6 0.6" opacity="0.4"/><g opacity="0.6"><rect x="62.02" y="34.83" width="11.65" height="11.65" fill="none" stroke="#2e2e34" stroke-width="0.07"/><text x="67.84" y="40.66" font-size="0.8" fill="#50505a" text-anchor="middle" dominant-baseline="central">U1</text><rect x="71.16" y="20.16" width="1.95" height="1.05" fill="none" stroke="#2e2e34" stroke-width="0.07"/><text x="72.14" y="20.68" font-size="0.8" fill="#50505a" text-anchor="middle" dominant-baseline="central">C101</text><rect x="65.5" y="20.48" width="1.95" height="1.05" fill="none" stroke="#2e2e34" stroke-width="0.07"/><text x="66.47" y="21.01" font-size="0.8" fill="#50505a" text-anchor="middle" dominant-baseline="central">C102</text><rect x="66.27" y="18.26" width="1.05" height="1.95" fill="none" stroke="#2e2e34" stroke-width="0.07"/><text x="66.8" y="19.24" font-size="0.8" fill="#50505a" text-anchor="middle" dominant-baseline="central">C103</text><rect x="67.68" y="14.9" width="1.05" height="1.95" fill="none" stroke="#2e2e34" stroke-width="0.07"/><text x="68.2" y="15.87" font-size="0.8" fill="#50505a" text-anchor="middle" dominant-baseline="central">C104</text><rect x="68.88" y="13.23" width="1.05" height="1.95" fill="none" stroke="#2e2e34" stroke-width="0.07"/><text x="69.4" y="14.21" font-size="0.8" fill="#50505a" text-anchor="middle" dominant-baseline="central">C105</text><rect x="64.38" y="11.8" width="1.95" height="1.05" fill="none" stroke="#2e2e34" stroke-width="0.07"/><text x="65.36" y="12.33" font-size="0.8" fill="#50505a" text-anchor="middle" dominant-baseline="central">C106</text><rect x="66.51" y="12.67" width="1.95" height="1.05" fill="none" stroke="#2e2e34" stroke-width="0.07"/><text x="67.48" y="13.2" font-size="0.8" fill="#50505a" text-anchor="middle" dominant-baseline="central">C107</text><rect x="68.25" y="9.61" width="1.05" height="1.95" fill="none" stroke="#2e2e34" stroke-width="0.07"/><text x="68.77" y="10.58" font-size="0.8" fill="#50505a" text-anchor="middle" dominant-baseline="central">C108</text><rect x="68" y="19.69" width="1.95" height="1.05" fill="none" stroke="#2e2e34" stroke-width="0.07"/><text x="68.98" y="20.22" font-size="0.8" fill="#50505a" text-anchor="middle" dominant-baseline="central">C109</text><rect x="69.87" y="33.04" width="1.95" height="1.05" fill="none" stroke="#2e2e34" stroke-width="0.07"/><text x="70.84" y="33.57" font-size="0.8" fill="#50505a" text-anchor="middle" dominant-baseline="central">C110</text><rect x="66.18" y="53.54" width="1.05" height="1.95" fill="none" stroke="#2e2e34" stroke-width="0.07"/><text x="66.71" y="54.51" font-size="0.8" fill="#50505a" text-anchor="middle" dominant-baseline="central">C111</text><rect x="67.03" y="73.82" width="1.05" height="1.95" fill="none" stroke="#2e2e34" stroke-width="0.07"/><text x="67.55" y="74.8" font-size="0.8" fill="#50505a" text-anchor="middle" dominant-baseline="central">C112</text><rect x="69.59" y="83.13" width="1.05" height="1.95" fill="none" stroke="#2e2e34" stroke-width="0.07"/><text x="70.12" y="84.11" font-size="0.8" fill="#50505a" text-anchor="middle" dominant-baseline="central">C113</text><rect x="66.45" y="87.37" width="1.05" height="1.95" fill="none" stroke="#2e2e34" stroke-width="0.07"/><text x="66.98" y="88.35" font-size="0.8" fill="#50505a" text-anchor="middle" dominant-baseline="central">C114</text><rect x="61.19" y="75.54" width="1.05" height="1.95" fill="none" stroke="#2e2e34" stroke-width="0.07"/><text x="61.72" y="76.52" font-size="0.8" fill="#50505a" text-anchor="middle" dominant-baseline="central">C115</text><rect x="67.12" y="71.06" width="1.95" height="1.05" fill="none" stroke="#2e2e34" stroke-width="0.07"/><text x="68.09" y="71.59" font-size="0.8" fill="#50505a" text-anchor="middle" dominant-baseline="central">C116</text><rect x="42.65" y="7.02" width="8.65" height="8.65" fill="none" stroke="#2e2e34" stroke-width="0.07"/><text x="46.98" y="11.34" font-size="0.8" fill="#50505a" text-anchor="middle" dominant-baseline="central">U2</text><rect x="68.37" y="55.4" width="1.95" height="1.05" fill="none" stroke="#2e2e34" stroke-width="0.07"/><text x="69.35" y="55.92" font-size="0.8" fill="#50505a" text-anchor="middle" dominant-baseline="central">C117</text><rect x="68.68" y="52.53" width="1.05" height="1.95" fill="none" stroke="#2e2e34" stroke-width="0.07"/><text x="69.21" y="53.51" font-size="0.8" fill="#50505a" text-anchor="middle" dominant-baseline="central">C118</text><rect x="67.73" y="49.25" width="1.95" height="1.05" fill="none" stroke="#2e2e34" stroke-width="0.07"/><text x="68.7" y="49.77" font-size="0.8" fill="#50505a" text-anchor="middle" dominant-baseline="central">C119</text><rect x="68.04" y="48.11" width="1.95" height="1.05" fill="none" stroke="#2e2e34" stroke-width="0.07"/><text x="69.02" y="48.64" font-size="0.8" fill="#50505a" text-anchor="middle" dominant-baseline="central">C120</text><rect x="40.46" y="29.83" width="11.65" height="11.65" fill="none" stroke="#2e2e34" stroke-width="0.07"/><text x="46.28" y="35.65" font-size="0.8" fill="#50505a" text-anchor="middle" dominant-baseline="central">U3</text><rect x="68.68" y="50.82" width="1.95" height="1.05" fill="none" stroke="#2e2e34" stroke-width="0.07"/><text x="69.66" y="51.35" font-size="0.8" fill="#50505a" text-anchor="middle" dominant-baseline="central">C121</text><rect x="70.29" y="47.26" width="1.95" height="1.05" fill="none" stroke="#2e2e34" stroke-width="0.07"/><text x="71.27" y="47.79" font-size="0.8" fill="#50505a" text-anchor="middle" dominant-baseline="central">C122</text><rect x="74.38" y="46.15" width="1.05" height="1.95" fill="none" stroke="#2e2e34" stroke-width="0.07"/><text x="74.91" y="47.12" font-size="0.8" fill="#50505a" text-anchor="middle" dominant-baseline="central">C123</text><rect x="76.18" y="45.29" width="1.95" height="1.05" fill="none" stroke="#2e2e34" stroke-width="0.07"/><text x="77.15" y="45.81" font-size="0.8" fill="#50505a" text-anchor="middle" dominant-baseline="central">C124</text><rect x="81.1" y="46.71" width="1.95" height="1.05" fill="none" stroke="#2e2e34" stroke-width="0.07"/><text x="82.08" y="47.24" font-size="0.8" fill="#50505a" text-anchor="middle" dominant-baseline="central">C125</text><rect x="55.25" y="25.81" width="6.5" height="5.81" fill="none" stroke="#2e2e34" stroke-width="0.07"/><text x="58.5" y="28.72" font-size="0.8" fill="#50505a" text-anchor="middle" dominant-baseline="central">U4</text><rect x="73.64" y="19.94" width="8.65" height="8.65" fill="none" stroke="#2e2e34" stroke-width="0.07"/><text x="77.97" y="24.27" font-size="0.8" fill="#50505a" text-anchor="middle" dominant-baseline="central">U5</text><rect x="88.02" y="50.48" width="1.95" height="1.05" fill="none" stroke="#2e2e34" stroke-width="0.07"/><text x="88.99" y="51" font-size="0.8" fill="#50505a" text-anchor="middle" dominant-baseline="central">C126</text><rect x="96.81" y="56.17" width="1.05" height="1.95" fill="none" stroke="#2e2e34" stroke-width="0.07"/><text x="97.33" y="57.15" font-size="0.8" fill="#50505a" text-anchor="middle" dominant-baseline="central">C127</text><rect x="104.8" y="64.43" width="1.95" height="1.05" fill="none" stroke="#2e2e34" stroke-width="0.07"/><text x="105.78" y="64.96" font-size="0.8" fill="#50505a" text-anchor="middle" dominant-baseline="central">C128</text><rect x="70.87" y="4.62" width="8.65" height="8.65" fill="none" stroke="#2e2e34" stroke-width="0.07"/><text x="75.19" y="8.95" font-size="0.8" fill="#50505a" text-anchor="middle" dominant-baseline="central">U6</text><rect x="112.64" y="73.25" width="1.05" height="1.95" fill="none" stroke="#2e2e34" stroke-width="0.07"/><text x="113.17" y="74.22" font-size="0.8" fill="#50505a" text-anchor="middle" dominant-baseline="central">C129</text><rect x="116.77" y="79.84" width="1.95" height="1.05" fill="none" stroke="#2e2e34" stroke-width="0.07"/><text x="117.75" y="80.37" font-size="0.8" fill="#50505a" text-anchor="middle" dominant-baseline="central">C130</text><rect x="115.59" y="88.55" width="1.95" height="1.05" fill="none" stroke="#2e2e34" stroke-width="0.07"/><text x="116.56" y="89.07" font-size="0.8" fill="#50505a" text-anchor="middle" dominant-baseline="central">C131</text><rect x="63.33" y="86.5" width="3" height="3.4" fill="none" stroke="#2e2e34" stroke-width="0.07"/><text x="64.83" y="88.2" font-size="0.8" fill="#50505a" text-anchor="middle" dominant-baseline="central">U10</text><rect x="78.81" y="89.14" width="5.5" height="5.5" fill="none" stroke="#2e2e34" stroke-width="0.07"/><text x="81.56" y="91.89" font-size="0.8" fill="#50505a" text-anchor="middle" dominant-baseline="central">L1</text><rect x="77.66" y="86.03" width="4.5" height="2.3" fill="none" stroke="#2e2e34" stroke-width="0.07"/><text x="79.91" y="87.18" font-size="0.8" fill="#50505a" text-anchor="middle" dominant-baseline="central">C200</text><rect x="86.59" y="82.96" width="2.3" height="4.5" fill="none" stroke="#2e2e34" stroke-width="0.07"/><text x="87.74" y="85.21" font-size="0.8" fill="#50505a" text-anchor="middle" dominant-baseline="central">C201</text><rect x="74.76" y="64.58" width="1.05" height="1.95" fill="none" stroke="#2e2e34" stroke-width="0.07"/><text x="75.29" y="65.55" font-size="0.8" fill="#50505a" text-anchor="middle" dominant-baseline="central">R1</text><rect x="57.95" y="16.62" width="1.05" height="1.95" fill="none" stroke="#2e2e34" stroke-width="0.07"/><text x="58.48" y="17.59" font-size="0.8" fill="#50505a" text-anchor="middle" dominant-baseline="central">R2</text><rect x="76.36" y="69.83" width="3.4" height="3" fill="none" stroke="#2e2e34" stroke-width="0.07"/><text x="78.06" y="71.33" font-size="0.8" fill="#50505a" text-anchor="middle" dominant-baseline="central">U11</text><rect x="72.37" y="90.07" width="5.5" height="5.5" fill="none" stroke="#2e2e34" stroke-width="0.07"/><text x="75.12" y="92.82" font-size="0.8" fill="#50505a" text-anchor="middle" dominant-baseline="central">L2</text><rect x="88.94" y="81.27" width="4.5" height="2.3" fill="none" stroke="#2e2e34" stroke-width="0.07"/><text x="91.19" y="82.42" font-size="0.8" fill="#50505a" text-anchor="middle" dominant-baseline="central">C202</text><rect x="95.74" y="82.78" width="2.3" height="4.5" fill="none" stroke="#2e2e34" stroke-width="0.07"/><text x="96.89" y="85.03" font-size="0.8" fill="#50505a" text-anchor="middle" dominant-baseline="central">C203</text><rect x="115.68" y="65.89" width="1.95" height="1.05" fill="none" stroke="#2e2e34" stroke-width="0.07"/><text x="116.65" y="66.42" font-size="0.8" fill="#50505a" text-anchor="middle" dominant-baseline="central">R3</text><rect x="93.62" y="31.61" width="1.05" height="1.95" fill="none" stroke="#2e2e34" stroke-width="0.07"/><text x="94.15" y="32.59" font-size="0.8" fill="#50505a" text-anchor="middle" dominant-baseline="central">R4</text><rect x="69.35" y="70.1" width="3" height="3.4" fill="none" stroke="#2e2e34" stroke-width="0.07"/><text x="70.85" y="71.8" font-size="0.8" fill="#50505a" text-anchor="middle" dominant-baseline="central">U12</text><rect x="81.55" y="80.36" width="5.5" height="5.5" fill="none" stroke="#2e2e34" stroke-width="0.07"/><text x="84.3" y="83.11" font-size="0.8" fill="#50505a" text-anchor="middle" dominant-baseline="central">L3</text><rect x="107.54" y="86.36" width="2.3" height="4.5" fill="none" stroke="#2e2e34" stroke-width="0.07"/><text x="108.69" y="88.61" font-size="0.8" fill="#50505a" text-anchor="middle" dominant-baseline="central">C204</text><rect x="110.4" y="85.54" width="4.5" height="2.3" fill="none" stroke="#2e2e34" stroke-width="0.07"/><text x="112.65" y="86.69" font-size="0.8" fill="#50505a" text-anchor="middle" dominant-baseline="central">C205</text><rect x="115.97" y="68.55" width="1.95" height="1.05" fill="none" stroke="#2e2e34" stroke-width="0.07"/><text x="116.94" y="69.07" font-size="0.8" fill="#50505a" text-anchor="middle" dominant-baseline="central">R5</text><rect x="101.15" y="31.65" width="1.05" height="1.95" fill="none" stroke="#2e2e34" stroke-width="0.07"/><text x="101.68" y="32.63" font-size="0.8" fill="#50505a" text-anchor="middle" dominant-baseline="central">R6</text><rect x="69.1" y="74.67" width="3" height="3.4" fill="none" stroke="#2e2e34" stroke-width="0.07"/><text x="70.6" y="76.37" font-size="0.8" fill="#50505a" text-anchor="middle" dominant-baseline="central">U13</text><rect x="80.33" y="75.58" width="5.5" height="5.5" fill="none" stroke="#2e2e34" stroke-width="0.07"/><text x="83.08" y="78.33" font-size="0.8" fill="#50505a" text-anchor="middle" dominant-baseline="central">L4</text><rect x="119.67" y="78.92" width="2.3" height="4.5" fill="none" stroke="#2e2e34" stroke-width="0.07"/><text x="120.82" y="81.17" font-size="0.8" fill="#50505a" text-anchor="middle" dominant-baseline="central">C206</text><rect x="117.26" y="83.93" width="2.3" height="4.5" fill="none" stroke="#2e2e34" stroke-width="0.07"/><text x="118.41" y="86.18" font-size="0.8" fill="#50505a" text-anchor="middle" dominant-baseline="central">C207</text><rect x="104.41" y="50.59" width="1.95" height="1.05" fill="none" stroke="#2e2e34" stroke-width="0.07"/><text x="105.39" y="51.11" font-size="0.8" fill="#50505a" text-anchor="middle" dominant-baseline="central">R7</text><rect x="95.22" y="18.98" width="1.05" height="1.95" fill="none" stroke="#2e2e34" stroke-width="0.07"/><text x="95.75" y="19.96" font-size="0.8" fill="#50505a" text-anchor="middle" dominant-baseline="central">R8</text><rect x="73.5" y="78.15" width="3.4" height="3" fill="none" stroke="#2e2e34" stroke-width="0.07"/><text x="75.2" y="79.65" font-size="0.8" fill="#50505a" text-anchor="middle" dominant-baseline="central">U14</text><rect x="85.18" y="72.44" width="5.5" height="5.5" fill="none" stroke="#2e2e34" stroke-width="0.07"/><text x="87.93" y="75.19" font-size="0.8" fill="#50505a" text-anchor="middle" dominant-baseline="central">L5</text><rect x="114.31" y="72.97" width="4.5" height="2.3" fill="none" stroke="#2e2e34" stroke-width="0.07"/><text x="116.56" y="74.12" font-size="0.8" fill="#50505a" text-anchor="middle" dominant-baseline="central">C208</text><rect x="107.91" y="59.9" width="4.5" height="2.3" fill="none" stroke="#2e2e34" stroke-width="0.07"/><text x="110.16" y="61.05" font-size="0.8" fill="#50505a" text-anchor="middle" dominant-baseline="central">C209</text><rect x="117.91" y="76.78" width="1.05" height="1.95" fill="none" stroke="#2e2e34" stroke-width="0.07"/><text x="118.44" y="77.75" font-size="0.8" fill="#50505a" text-anchor="middle" dominant-baseline="central">R9</text><rect x="93.45" y="15.34" width="1.95" height="1.05" fill="none" stroke="#2e2e34" stroke-width="0.07"/><text x="94.43" y="15.87" font-size="0.8" fill="#50505a" text-anchor="middle" dominant-baseline="central">R10</text><rect x="25.92" y="75.48" width="3.3" height="3.4" fill="none" stroke="#2e2e34" stroke-width="0.07"/><text x="27.57" y="77.18" font-size="0.8" fill="#50505a" text-anchor="middle" dominant-baseline="central">U15</text><rect x="100.09" y="45.75" width="1.05" height="1.95" fill="none" stroke="#2e2e34" stroke-width="0.07"/><text x="100.61" y="46.72" font-size="0.8" fill="#50505a" text-anchor="middle" dominant-baseline="central">C132</text><rect x="52.36" y="62.3" width="8.65" height="8.65" fill="none" stroke="#2e2e34" stroke-width="0.07"/><text x="56.69" y="66.62" font-size="0.8" fill="#50505a" text-anchor="middle" dominant-baseline="central">U20</text><rect x="72.78" y="70.62" width="3.3" height="3.4" fill="none" stroke="#2e2e34" stroke-width="0.07"/><text x="74.43" y="72.32" font-size="0.8" fill="#50505a" text-anchor="middle" dominant-baseline="central">Q1</text><rect x="55.69" y="84.72" width="3.3" height="3.4" fill="none" stroke="#2e2e34" stroke-width="0.07"/><text x="57.34" y="86.42" font-size="0.8" fill="#50505a" text-anchor="middle" dominant-baseline="central">Q2</text><rect x="77.45" y="82.44" width="3.4" height="3.3" fill="none" stroke="#2e2e34" stroke-width="0.07"/><text x="79.15" y="84.09" font-size="0.8" fill="#50505a" text-anchor="middle" dominant-baseline="central">Q3</text><rect x="63.47" y="90.25" width="3.4" height="3.3" fill="none" stroke="#2e2e34" stroke-width="0.07"/><text x="65.17" y="91.9" font-size="0.8" fill="#50505a" text-anchor="middle" dominant-baseline="central">Q4</text><rect x="66.81" y="82.57" width="3.4" height="3.3" fill="none" stroke="#2e2e34" stroke-width="0.07"/><text x="68.51" y="84.22" font-size="0.8" fill="#50505a" text-anchor="middle" dominant-baseline="central">Q5</text><rect x="62.28" y="82.35" width="3.3" height="3.4" fill="none" stroke="#2e2e34" stroke-width="0.07"/><text x="63.93" y="84.05" font-size="0.8" fill="#50505a" text-anchor="middle" dominant-baseline="central">Q6</text><rect x="80.95" y="72.89" width="3.4" height="1.75" fill="none" stroke="#2e2e34" stroke-width="0.07"/><text x="82.65" y="73.77" font-size="0.8" fill="#50505a" text-anchor="middle" dominant-baseline="central">R11</text><rect x="110.43" y="75.65" width="3.4" height="1.75" fill="none" stroke="#2e2e34" stroke-width="0.07"/><text x="112.13" y="76.52" font-size="0.8" fill="#50505a" text-anchor="middle" dominant-baseline="central">R12</text><rect x="77.04" y="72.68" width="3.4" height="1.75" fill="none" stroke="#2e2e34" stroke-width="0.07"/><text x="78.74" y="73.56" font-size="0.8" fill="#50505a" text-anchor="middle" dominant-baseline="central">R13</text><rect x="67.01" y="91.36" width="2.3" height="4.5" fill="none" stroke="#2e2e34" stroke-width="0.07"/><text x="68.16" y="93.61" font-size="0.8" fill="#50505a" text-anchor="middle" dominant-baseline="central">C220</text><rect x="72.09" y="75.19" width="4.5" height="2.3" fill="none" stroke="#2e2e34" stroke-width="0.07"/><text x="74.34" y="76.34" font-size="0.8" fill="#50505a" text-anchor="middle" dominant-baseline="central">C221</text><rect x="2" y="72.09" width="15.5" height="3.1" fill="none" stroke="#2e2e34" stroke-width="0.07"/><text x="9.75" y="73.64" font-size="0.8" fill="#50505a" text-anchor="middle" dominant-baseline="central">J10</text><rect x="35.23" y="61.21" width="8.65" height="8.65" fill="none" stroke="#2e2e34" stroke-width="0.07"/><text x="39.55" y="65.54" font-size="0.8" fill="#50505a" text-anchor="middle" dominant-baseline="central">U21</text><rect x="63.71" y="74.17" width="3.3" height="3.4" fill="none" stroke="#2e2e34" stroke-width="0.07"/><text x="65.36" y="75.87" font-size="0.8" fill="#50505a" text-anchor="middle" dominant-baseline="central">Q7</text><rect x="51.65" y="75.73" width="3.3" height="3.4" fill="none" stroke="#2e2e34" stroke-width="0.07"/><text x="53.3" y="77.43" font-size="0.8" fill="#50505a" text-anchor="middle" dominant-baseline="central">Q8</text><rect x="59.23" y="86.99" width="3.3" height="3.4" fill="none" stroke="#2e2e34" stroke-width="0.07"/><text x="60.88" y="88.69" font-size="0.8" fill="#50505a" text-anchor="middle" dominant-baseline="central">Q9</text><rect x="55.12" y="79.28" width="3.3" height="3.4" fill="none" stroke="#2e2e34" stroke-width="0.07"/><text x="56.77" y="80.98" font-size="0.8" fill="#50505a" text-anchor="middle" dominant-baseline="central">Q10</text><rect x="60.71" y="66.46" width="3.4" height="3.3" fill="none" stroke="#2e2e34" stroke-width="0.07"/><text x="62.41" y="68.11" font-size="0.8" fill="#50505a" text-anchor="middle" dominant-baseline="central">Q11</text><rect x="55.01" y="71.53" width="3.4" height="3.3" fill="none" stroke="#2e2e34" stroke-width="0.07"/><text x="56.71" y="73.18" font-size="0.8" fill="#50505a" text-anchor="middle" dominant-baseline="central">Q12</text><rect x="27.6" y="62.49" width="1.75" height="3.4" fill="none" stroke="#2e2e34" stroke-width="0.07"/><text x="28.48" y="64.19" font-size="0.8" fill="#50505a" text-anchor="middle" dominant-baseline="central">R14</text><rect x="46.53" y="63.86" width="1.75" height="3.4" fill="none" stroke="#2e2e34" stroke-width="0.07"/><text x="47.4" y="65.56" font-size="0.8" fill="#50505a" text-anchor="middle" dominant-baseline="central">R15</text><rect x="44.21" y="67.41" width="1.75" height="3.4" fill="none" stroke="#2e2e34" stroke-width="0.07"/><text x="45.09" y="69.11" font-size="0.8" fill="#50505a" text-anchor="middle" dominant-baseline="central">R16</text><rect x="65.24" y="82.05" width="2.3" height="4.5" fill="none" stroke="#2e2e34" stroke-width="0.07"/><text x="66.39" y="84.3" font-size="0.8" fill="#50505a" text-anchor="middle" dominant-baseline="central">C222</text><rect x="67.24" y="72.91" width="2.3" height="4.5" fill="none" stroke="#2e2e34" stroke-width="0.07"/><text x="68.39" y="75.16" font-size="0.8" fill="#50505a" text-anchor="middle" dominant-baseline="central">C223</text><rect x="2" y="85.29" width="15.5" height="3.1" fill="none" stroke="#2e2e34" stroke-width="0.07"/><text x="9.75" y="86.84" font-size="0.8" fill="#50505a" text-anchor="middle" dominant-baseline="central">J11</text><rect x="62.53" y="56.88" width="8.65" height="8.65" fill="none" stroke="#2e2e34" stroke-width="0.07"/><text x="66.85" y="61.21" font-size="0.8" fill="#50505a" text-anchor="middle" dominant-baseline="central">U22</text><rect x="71.13" y="81.89" width="3.4" height="3.3" fill="none" stroke="#2e2e34" stroke-width="0.07"/><text x="72.83" y="83.54" font-size="0.8" fill="#50505a" text-anchor="middle" dominant-baseline="central">Q13</text><rect x="62.3" y="76.75" width="3.3" height="3.4" fill="none" stroke="#2e2e34" stroke-width="0.07"/><text x="63.95" y="78.45" font-size="0.8" fill="#50505a" text-anchor="middle" dominant-baseline="central">Q14</text><rect x="65.62" y="66.43" width="3.4" height="3.3" fill="none" stroke="#2e2e34" stroke-width="0.07"/><text x="67.32" y="68.08" font-size="0.8" fill="#50505a" text-anchor="middle" dominant-baseline="central">Q15</text><rect x="58.25" y="83.4" width="3.3" height="3.4" fill="none" stroke="#2e2e34" stroke-width="0.07"/><text x="59.9" y="85.1" font-size="0.8" fill="#50505a" text-anchor="middle" dominant-baseline="central">Q16</text><rect x="74.32" y="86.43" width="3.3" height="3.4" fill="none" stroke="#2e2e34" stroke-width="0.07"/><text x="75.97" y="88.13" font-size="0.8" fill="#50505a" text-anchor="middle" dominant-baseline="central">Q17</text><rect x="55.27" y="75.11" width="3.3" height="3.4" fill="none" stroke="#2e2e34" stroke-width="0.07"/><text x="56.92" y="76.81" font-size="0.8" fill="#50505a" text-anchor="middle" dominant-baseline="central">Q18</text><rect x="80.01" y="68.54" width="1.75" height="3.4" fill="none" stroke="#2e2e34" stroke-width="0.07"/><text x="80.89" y="70.24" font-size="0.8" fill="#50505a" text-anchor="middle" dominant-baseline="central">R17</text><rect x="82.36" y="69.72" width="3.4" height="1.75" fill="none" stroke="#2e2e34" stroke-width="0.07"/><text x="84.06" y="70.6" font-size="0.8" fill="#50505a" text-anchor="middle" dominant-baseline="central">R18</text><rect x="76.92" y="67.7" width="3.4" height="1.75" fill="none" stroke="#2e2e34" stroke-width="0.07"/><text x="78.62" y="68.57" font-size="0.8" fill="#50505a" text-anchor="middle" dominant-baseline="central">R19</text><rect x="71.6" y="78.96" width="4.5" height="2.3" fill="none" stroke="#2e2e34" stroke-width="0.07"/><text x="73.85" y="80.11" font-size="0.8" fill="#50505a" text-anchor="middle" dominant-baseline="central">C224</text><rect x="66.1" y="77.08" width="2.3" height="4.5" fill="none" stroke="#2e2e34" stroke-width="0.07"/><text x="67.25" y="79.33" font-size="0.8" fill="#50505a" text-anchor="middle" dominant-baseline="central">C225</text><rect x="5.37" y="76.25" width="15.5" height="3.1" fill="none" stroke="#2e2e34" stroke-width="0.07"/><text x="13.12" y="77.8" font-size="0.8" fill="#50505a" text-anchor="middle" dominant-baseline="central">J12</text><rect x="99.24" y="76.93" width="8.65" height="8.65" fill="none" stroke="#2e2e34" stroke-width="0.07"/><text x="103.57" y="81.26" font-size="0.8" fill="#50505a" text-anchor="middle" dominant-baseline="central">U23</text><rect x="73.12" y="65.89" width="3.3" height="3.4" fill="none" stroke="#2e2e34" stroke-width="0.07"/><text x="74.77" y="67.59" font-size="0.8" fill="#50505a" text-anchor="middle" dominant-baseline="central">Q19</text><rect x="58.62" y="71.67" width="3.4" height="3.3" fill="none" stroke="#2e2e34" stroke-width="0.07"/><text x="60.32" y="73.32" font-size="0.8" fill="#50505a" text-anchor="middle" dominant-baseline="central">Q20</text><rect x="70.77" y="86.14" width="3.4" height="3.3" fill="none" stroke="#2e2e34" stroke-width="0.07"/><text x="72.47" y="87.79" font-size="0.8" fill="#50505a" text-anchor="middle" dominant-baseline="central">Q21</text><rect x="68.47" y="66.66" width="3.3" height="3.4" fill="none" stroke="#2e2e34" stroke-width="0.07"/><text x="70.12" y="68.36" font-size="0.8" fill="#50505a" text-anchor="middle" dominant-baseline="central">Q22</text><rect x="77.58" y="75.6" width="3.3" height="3.4" fill="none" stroke="#2e2e34" stroke-width="0.07"/><text x="79.23" y="77.3" font-size="0.8" fill="#50505a" text-anchor="middle" dominant-baseline="central">Q23</text><rect x="58.29" y="79.34" width="3.3" height="3.4" fill="none" stroke="#2e2e34" stroke-width="0.07"/><text x="59.94" y="81.04" font-size="0.8" fill="#50505a" text-anchor="middle" dominant-baseline="central">Q24</text><rect x="111.14" y="83.7" width="3.4" height="1.75" fill="none" stroke="#2e2e34" stroke-width="0.07"/><text x="112.84" y="84.57" font-size="0.8" fill="#50505a" text-anchor="middle" dominant-baseline="central">R20</text><rect x="32.55" y="83.93" width="3.4" height="1.75" fill="none" stroke="#2e2e34" stroke-width="0.07"/><text x="34.25" y="84.8" font-size="0.8" fill="#50505a" text-anchor="middle" dominant-baseline="central">R21</text><rect x="113.23" y="81.58" width="3.4" height="1.75" fill="none" stroke="#2e2e34" stroke-width="0.07"/><text x="114.93" y="82.45" font-size="0.8" fill="#50505a" text-anchor="middle" dominant-baseline="central">R22</text><rect x="68.78" y="77.1" width="2.3" height="4.5" fill="none" stroke="#2e2e34" stroke-width="0.07"/><text x="69.93" y="79.35" font-size="0.8" fill="#50505a" text-anchor="middle" dominant-baseline="central">C226</text><rect x="68.32" y="86.33" width="2.3" height="4.5" fill="none" stroke="#2e2e34" stroke-width="0.07"/><text x="69.47" y="88.58" font-size="0.8" fill="#50505a" text-anchor="middle" dominant-baseline="central">C227</text><rect x="13.75" y="81.89" width="15.5" height="3.1" fill="none" stroke="#2e2e34" stroke-width="0.07"/><text x="21.5" y="83.44" font-size="0.8" fill="#50505a" text-anchor="middle" dominant-baseline="central">J13</text><rect x="2" y="58.76" width="10.5" height="3.1" fill="none" stroke="#2e2e34" stroke-width="0.07"/><text x="7.25" y="60.31" font-size="0.8" fill="#50505a" text-anchor="middle" dominant-baseline="central">J20</text><rect x="2" y="50.36" width="10.5" height="3.1" fill="none" stroke="#2e2e34" stroke-width="0.07"/><text x="7.25" y="51.91" font-size="0.8" fill="#50505a" text-anchor="middle" dominant-baseline="central">J21</text><rect x="71.35" y="13.36" width="5.65" height="5.65" fill="none" stroke="#2e2e34" stroke-width="0.07"/><text x="74.18" y="16.18" font-size="0.8" fill="#50505a" text-anchor="middle" dominant-baseline="central">U40</text><rect x="89.52" y="36.34" width="1.95" height="1.05" fill="none" stroke="#2e2e34" stroke-width="0.07"/><text x="90.49" y="36.87" font-size="0.8" fill="#50505a" text-anchor="middle" dominant-baseline="central">C133</text><rect x="52.42" y="5.98" width="5.65" height="5.65" fill="none" stroke="#2e2e34" stroke-width="0.07"/><text x="55.24" y="8.81" font-size="0.8" fill="#50505a" text-anchor="middle" dominant-baseline="central">U41</text><rect x="81.87" y="30.28" width="1.05" height="1.95" fill="none" stroke="#2e2e34" stroke-width="0.07"/><text x="82.4" y="31.25" font-size="0.8" fill="#50505a" text-anchor="middle" dominant-baseline="central">C134</text><rect x="57.13" y="23.76" width="2.8" height="1.35" fill="none" stroke="#2e2e34" stroke-width="0.07"/><text x="58.53" y="24.44" font-size="0.8" fill="#50505a" text-anchor="middle" dominant-baseline="central">U42</text><rect x="76.38" y="29.83" width="1.95" height="1.05" fill="none" stroke="#2e2e34" stroke-width="0.07"/><text x="77.36" y="30.36" font-size="0.8" fill="#50505a" text-anchor="middle" dominant-baseline="central">C135</text><rect x="69.75" y="26.25" width="1.35" height="2.8" fill="none" stroke="#2e2e34" stroke-width="0.07"/><text x="70.43" y="27.65" font-size="0.8" fill="#50505a" text-anchor="middle" dominant-baseline="central">U43</text><rect x="71.6" y="26.64" width="1.05" height="1.95" fill="none" stroke="#2e2e34" stroke-width="0.07"/><text x="72.12" y="27.61" font-size="0.8" fill="#50505a" text-anchor="middle" dominant-baseline="central">C136</text><rect x="67.48" y="18.22" width="2.8" height="1.35" fill="none" stroke="#2e2e34" stroke-width="0.07"/><text x="68.88" y="18.89" font-size="0.8" fill="#50505a" text-anchor="middle" dominant-baseline="central">U44</text><rect x="71.11" y="24.51" width="1.05" height="1.95" fill="none" stroke="#2e2e34" stroke-width="0.07"/><text x="71.64" y="25.49" font-size="0.8" fill="#50505a" text-anchor="middle" dominant-baseline="central">C137</text><rect x="61.3" y="23.65" width="1.35" height="2.8" fill="none" stroke="#2e2e34" stroke-width="0.07"/><text x="61.98" y="25.05" font-size="0.8" fill="#50505a" text-anchor="middle" dominant-baseline="central">U45</text><rect x="70.94" y="21.84" width="1.05" height="1.95" fill="none" stroke="#2e2e34" stroke-width="0.07"/><text x="71.47" y="22.82" font-size="0.8" fill="#50505a" text-anchor="middle" dominant-baseline="central">C138</text><rect x="59.49" y="3.75" width="5.65" height="5.65" fill="none" stroke="#2e2e34" stroke-width="0.07"/><text x="62.32" y="6.57" font-size="0.8" fill="#50505a" text-anchor="middle" dominant-baseline="central">U46</text><rect x="66.84" y="23.41" width="1.05" height="1.95" fill="none" stroke="#2e2e34" stroke-width="0.07"/><text x="67.37" y="24.38" font-size="0.8" fill="#50505a" text-anchor="middle" dominant-baseline="central">C139</text><rect x="48.44" y="23.22" width="5.65" height="5.65" fill="none" stroke="#2e2e34" stroke-width="0.07"/><text x="51.26" y="26.05" font-size="0.8" fill="#50505a" text-anchor="middle" dominant-baseline="central">U47</text><rect x="69.66" y="23.96" width="1.05" height="1.95" fill="none" stroke="#2e2e34" stroke-width="0.07"/><text x="70.19" y="24.94" font-size="0.8" fill="#50505a" text-anchor="middle" dominant-baseline="central">C140</text><rect x="66.52" y="19.06" width="1.05" height="1.95" fill="none" stroke="#2e2e34" stroke-width="0.07"/><text x="67.04" y="20.04" font-size="0.8" fill="#50505a" text-anchor="middle" dominant-baseline="central">R23</text><rect x="57.88" y="19.66" width="1.95" height="1.05" fill="none" stroke="#2e2e34" stroke-width="0.07"/><text x="58.85" y="20.18" font-size="0.8" fill="#50505a" text-anchor="middle" dominant-baseline="central">R24</text><rect x="52.78" y="32.23" width="8.65" height="8.65" fill="none" stroke="#2e2e34" stroke-width="0.07"/><text x="57.1" y="36.56" font-size="0.8" fill="#50505a" text-anchor="middle" dominant-baseline="central">U50</text><rect x="58.36" y="9.86" width="5.5" height="5.5" fill="none" stroke="#2e2e34" stroke-width="0.07"/><text x="61.11" y="12.61" font-size="0.8" fill="#50505a" text-anchor="middle" dominant-baseline="central">L20</text><rect x="68.7" y="21.7" width="1.05" height="1.95" fill="none" stroke="#2e2e34" stroke-width="0.07"/><text x="69.22" y="22.68" font-size="0.8" fill="#50505a" text-anchor="middle" dominant-baseline="central">C240</text><rect x="101.82" y="23.35" width="12.5" height="6.5" fill="none" stroke="#2e2e34" stroke-width="0.07"/><text x="108.07" y="26.6" font-size="0.8" fill="#50505a" text-anchor="middle" dominant-baseline="central">ANT0</text><rect x="67.22" y="21.25" width="1.05" height="1.95" fill="none" stroke="#2e2e34" stroke-width="0.07"/><text x="67.74" y="22.23" font-size="0.8" fill="#50505a" text-anchor="middle" dominant-baseline="central">C141</text><rect x="121.35" y="18.15" width="8.65" height="8.65" fill="none" stroke="#2e2e34" stroke-width="0.07"/><text x="125.68" y="22.48" font-size="0.8" fill="#50505a" text-anchor="middle" dominant-baseline="central">U51</text><rect x="45.9" y="16.36" width="5.5" height="5.5" fill="none" stroke="#2e2e34" stroke-width="0.07"/><text x="48.65" y="19.11" font-size="0.8" fill="#50505a" text-anchor="middle" dominant-baseline="central">L21</text><rect x="64.63" y="15.9" width="1.05" height="1.95" fill="none" stroke="#2e2e34" stroke-width="0.07"/><text x="65.16" y="16.87" font-size="0.8" fill="#50505a" text-anchor="middle" dominant-baseline="central">C241</text><rect x="109.65" y="15.36" width="12.5" height="6.5" fill="none" stroke="#2e2e34" stroke-width="0.07"/><text x="115.9" y="18.61" font-size="0.8" fill="#50505a" text-anchor="middle" dominant-baseline="central">ANT1</text><rect x="63.59" y="23.06" width="1.95" height="1.05" fill="none" stroke="#2e2e34" stroke-width="0.07"/><text x="64.57" y="23.59" font-size="0.8" fill="#50505a" text-anchor="middle" dominant-baseline="central">C142</text><rect x="62.98" y="26.86" width="6.65" height="6.65" fill="none" stroke="#2e2e34" stroke-width="0.07"/><text x="66.31" y="30.19" font-size="0.8" fill="#50505a" text-anchor="middle" dominant-baseline="central">U60</text><rect x="65.11" y="24.43" width="1.05" height="1.95" fill="none" stroke="#2e2e34" stroke-width="0.07"/><text x="65.64" y="25.41" font-size="0.8" fill="#50505a" text-anchor="middle" dominant-baseline="central">C143</text><rect x="62.9" y="21.86" width="1.95" height="1.05" fill="none" stroke="#2e2e34" stroke-width="0.07"/><text x="63.88" y="22.39" font-size="0.8" fill="#50505a" text-anchor="middle" dominant-baseline="central">C144</text><rect x="13.46" y="52.44" width="15.74" height="3.1" fill="none" stroke="#2e2e34" stroke-width="0.07"/><text x="21.33" y="53.99" font-size="0.8" fill="#50505a" text-anchor="middle" dominant-baseline="central">J30</text><rect x="51.85" y="12.18" width="5.81" height="6.5" fill="none" stroke="#2e2e34" stroke-width="0.07"/><text x="54.75" y="15.43" font-size="0.8" fill="#50505a" text-anchor="middle" dominant-baseline="central">U61</text><rect x="2" y="39.9" width="10.66" height="3.1" fill="none" stroke="#2e2e34" stroke-width="0.07"/><text x="7.33" y="41.45" font-size="0.8" fill="#50505a" text-anchor="middle" dominant-baseline="central">J31</text><rect x="24.26" y="29.29" width="6.5" height="5.81" fill="none" stroke="#2e2e34" stroke-width="0.07"/><text x="27.51" y="32.19" font-size="0.8" fill="#50505a" text-anchor="middle" dominant-baseline="central">U62</text><rect x="2" y="45.38" width="10.66" height="3.1" fill="none" stroke="#2e2e34" stroke-width="0.07"/><text x="7.33" y="46.93" font-size="0.8" fill="#50505a" text-anchor="middle" dominant-baseline="central">J32</text><rect x="2" y="22.73" width="10.3" height="8" fill="none" stroke="#2e2e34" stroke-width="0.07"/><text x="7.15" y="26.73" font-size="0.8" fill="#50505a" text-anchor="middle" dominant-baseline="central">J33</text><rect x="59.5" y="20.52" width="3.4" height="3" fill="none" stroke="#2e2e34" stroke-width="0.07"/><text x="61.2" y="22.02" font-size="0.8" fill="#50505a" text-anchor="middle" dominant-baseline="central">U63</text><rect x="53.89" y="18.95" width="3.7" height="3.1" fill="none" stroke="#2e2e34" stroke-width="0.07"/><text x="55.74" y="20.5" font-size="0.8" fill="#50505a" text-anchor="middle" dominant-baseline="central">Y1</text><rect x="59.92" y="16.22" width="3.1" height="3.7" fill="none" stroke="#2e2e34" stroke-width="0.07"/><text x="61.47" y="18.07" font-size="0.8" fill="#50505a" text-anchor="middle" dominant-baseline="central">Y2</text><rect x="39.55" y="12.45" width="3.1" height="3.7" fill="none" stroke="#2e2e34" stroke-width="0.07"/><text x="41.1" y="14.3" font-size="0.8" fill="#50505a" text-anchor="middle" dominant-baseline="central">Y3</text><rect x="45" y="23.98" width="2.8" height="1.35" fill="none" stroke="#2e2e34" stroke-width="0.07"/><text x="46.4" y="24.66" font-size="0.8" fill="#50505a" text-anchor="middle" dominant-baseline="central">D1</text><rect x="54.3" y="22.97" width="1.95" height="1.05" fill="none" stroke="#2e2e34" stroke-width="0.07"/><text x="55.28" y="23.5" font-size="0.8" fill="#50505a" text-anchor="middle" dominant-baseline="central">R25</text><rect x="76.54" y="81.82" width="1.35" height="2.8" fill="none" stroke="#2e2e34" stroke-width="0.07"/><text x="77.22" y="83.22" font-size="0.8" fill="#50505a" text-anchor="middle" dominant-baseline="central">D2</text><rect x="75.18" y="85.21" width="1.95" height="1.05" fill="none" stroke="#2e2e34" stroke-width="0.07"/><text x="76.16" y="85.74" font-size="0.8" fill="#50505a" text-anchor="middle" dominant-baseline="central">R26</text><rect x="65.3" y="12.53" width="1.35" height="2.8" fill="none" stroke="#2e2e34" stroke-width="0.07"/><text x="65.97" y="13.93" font-size="0.8" fill="#50505a" text-anchor="middle" dominant-baseline="central">D3</text><rect x="63.81" y="19.4" width="1.05" height="1.95" fill="none" stroke="#2e2e34" stroke-width="0.07"/><text x="64.33" y="20.38" font-size="0.8" fill="#50505a" text-anchor="middle" dominant-baseline="central">R27</text><rect x="112.21" y="13.07" width="2.8" height="1.35" fill="none" stroke="#2e2e34" stroke-width="0.07"/><text x="113.61" y="13.75" font-size="0.8" fill="#50505a" text-anchor="middle" dominant-baseline="central">D4</text><rect x="102.64" y="14.83" width="1.95" height="1.05" fill="none" stroke="#2e2e34" stroke-width="0.07"/><text x="103.62" y="15.36" font-size="0.8" fill="#50505a" text-anchor="middle" dominant-baseline="central">R28</text><rect x="14.36" y="15.45" width="1.35" height="2.8" fill="none" stroke="#2e2e34" stroke-width="0.07"/><text x="15.04" y="16.85" font-size="0.8" fill="#50505a" text-anchor="middle" dominant-baseline="central">D5</text><rect x="15.87" y="18.78" width="1.95" height="1.05" fill="none" stroke="#2e2e34" stroke-width="0.07"/><text x="16.85" y="19.3" font-size="0.8" fill="#50505a" text-anchor="middle" dominant-baseline="central">R29</text><rect x="14.83" y="13.19" width="2.8" height="1.35" fill="none" stroke="#2e2e34" stroke-width="0.07"/><text x="16.23" y="13.87" font-size="0.8" fill="#50505a" text-anchor="middle" dominant-baseline="central">D6</text><rect x="22.28" y="14.71" width="1.95" height="1.05" fill="none" stroke="#2e2e34" stroke-width="0.07"/><text x="23.26" y="15.23" font-size="0.8" fill="#50505a" text-anchor="middle" dominant-baseline="central">R30</text><rect x="28.93" y="17.2" width="1.35" height="2.8" fill="none" stroke="#2e2e34" stroke-width="0.07"/><text x="29.6" y="18.6" font-size="0.8" fill="#50505a" text-anchor="middle" dominant-baseline="central">D7</text><rect x="37.69" y="12.84" width="1.05" height="1.95" fill="none" stroke="#2e2e34" stroke-width="0.07"/><text x="38.21" y="13.81" font-size="0.8" fill="#50505a" text-anchor="middle" dominant-baseline="central">R31</text><rect x="26.24" y="22.01" width="1.35" height="2.8" fill="none" stroke="#2e2e34" stroke-width="0.07"/><text x="26.91" y="23.41" font-size="0.8" fill="#50505a" text-anchor="middle" dominant-baseline="central">D8</text><rect x="34.66" y="22.04" width="1.95" height="1.05" fill="none" stroke="#2e2e34" stroke-width="0.07"/><text x="35.64" y="22.57" font-size="0.8" fill="#50505a" text-anchor="middle" dominant-baseline="central">R32</text><rect x="2" y="55.61" width="15.74" height="3.1" fill="none" stroke="#2e2e34" stroke-width="0.07"/><text x="9.87" y="57.16" font-size="0.8" fill="#50505a" text-anchor="middle" dominant-baseline="central">J40</text><rect x="2" y="79.45" width="10.66" height="3.1" fill="none" stroke="#2e2e34" stroke-width="0.07"/><text x="7.33" y="81" font-size="0.8" fill="#50505a" text-anchor="middle" dominant-baseline="central">J41</text><rect x="2.48" y="17.82" width="10.66" height="3.1" fill="none" stroke="#2e2e34" stroke-width="0.07"/><text x="7.81" y="19.37" font-size="0.8" fill="#50505a" text-anchor="middle" dominant-baseline="central">J42</text><rect x="63.13" y="70.46" width="3.1" height="3.04" fill="none" stroke="#2e2e34" stroke-width="0.07"/><text x="64.68" y="71.98" font-size="0.8" fill="#50505a" text-anchor="middle" dominant-baseline="central">TP1</text><rect x="114.28" y="76.43" width="3.1" height="3.04" fill="none" stroke="#2e2e34" stroke-width="0.07"/><text x="115.83" y="77.95" font-size="0.8" fill="#50505a" text-anchor="middle" dominant-baseline="central">TP2</text><rect x="86.43" y="18.59" width="3.04" height="3.1" fill="none" stroke="#2e2e34" stroke-width="0.07"/><text x="87.95" y="20.14" font-size="0.8" fill="#50505a" text-anchor="middle" dominant-baseline="central">TP3</text><rect x="108.55" y="79.96" width="3.1" height="3.04" fill="none" stroke="#2e2e34" stroke-width="0.07"/><text x="110.1" y="81.48" font-size="0.8" fill="#50505a" text-anchor="middle" dominant-baseline="central">TP4</text></g><circle cx="66.71" cy="54.51" r="10" fill="url(#heatHigh)"/><circle cx="69.66" cy="51.35" r="10" fill="url(#heatHigh)"/><circle cx="77.15" cy="45.81" r="10" fill="url(#heatHigh)"/><circle cx="82.08" cy="47.24" r="10" fill="url(#heatHigh)"/><circle cx="88.99" cy="51" r="10" fill="url(#heatHigh)"/><circle cx="97.33" cy="57.15" r="10" fill="url(#heatHigh)"/><circle cx="105.78" cy="64.96" r="10" fill="url(#heatHigh)"/><circle cx="113.17" cy="74.22" r="10" fill="url(#heatHigh)"/><circle cx="117.75" cy="80.37" r="10" fill="url(#heatHigh)"/><circle cx="116.56" cy="89.07" r="10" fill="url(#heatHigh)"/><circle cx="87.74" cy="85.21" r="10" fill="url(#heatHigh)"/><circle cx="91.19" cy="82.42" r="10" fill="url(#heatHigh)"/><rect x="0.5" y="87" width="60" height="12" fill="#0a0a0b" opacity="0.78" stroke="#26262b" stroke-width="0.1"/><text x="1.2" y="88.5" font-size="1.2" fill="#ececed" font-weight="bold">Risk hotspots (total 19613.72)</text><circle cx="1.6" cy="89.55" r="0.45" fill="#c2655f"/><text x="2.6" y="89.9" font-size="1.0" fill="#c0c0c4">decap_far: C111 decoupling cap is 13.9mm from U1</text><circle cx="1.6" cy="90.95" r="0.45" fill="#c2655f"/><text x="2.6" y="91.3" font-size="1.0" fill="#c0c0c4">decap_far: C121 decoupling cap is 10.8mm from U1</text><circle cx="1.6" cy="92.35" r="0.45" fill="#c2655f"/><text x="2.6" y="92.7" font-size="1.0" fill="#c0c0c4">decap_far: C124 decoupling cap is 10.6mm from U1</text><circle cx="1.6" cy="93.75" r="0.45" fill="#c2655f"/><text x="2.6" y="94.1" font-size="1.0" fill="#c0c0c4">decap_far: C125 decoupling cap is 15.7mm from U1</text><circle cx="1.6" cy="95.15" r="0.45" fill="#c2655f"/><text x="2.6" y="95.5" font-size="1.0" fill="#c0c0c4">decap_far: C126 decoupling cap is 23.1mm from U11</text><g opacity="0.95"><text x="114" y="1.5" font-size="1.1" fill="#ececed" font-weight="bold">field scores</text><rect x="114" y="2.1" width="1.11" height="1.0" fill="#c08a36"/><text x="114" y="1.8" font-size="0.8" fill="#c0c0c4">coupling 0.08</text><rect x="114" y="4.1" width="0" height="1.0" fill="#7e828a"/><text x="114" y="3.8" font-size="0.8" fill="#c0c0c4">returnPath 0</text><rect x="114" y="6.1" width="14" height="1.0" fill="#9a8d63"/><text x="114" y="5.8" font-size="0.8" fill="#c0c0c4">switching 1</text><rect x="114" y="8.1" width="14" height="1.0" fill="#74727e"/><text x="114" y="7.8" font-size="0.8" fill="#c0c0c4">antenna 1</text><rect x="114" y="10.1" width="14" height="1.0" fill="#c2655f"/><text x="114" y="9.8" font-size="0.8" fill="#c0c0c4">thermal 1</text></g></svg>