<svg xmlns="http://www.w3.org/2000/svg" width="900" height="692" viewBox="-3 -3 52 40" font-family="monospace"><rect x="-3" y="-3" width="52" height="40" fill="#0b1020"/><rect x="0" y="0" width="46" height="34" fill="#0a201a" stroke="#15553d" stroke-width="0.3"/><circle cx="3.5" cy="3.5" r="1.6" fill="#05100c" stroke="#9aa0aa" stroke-width="0.25"/><circle cx="3.5" cy="3.5" r="4" fill="none" stroke="#9aa0aa" stroke-width="0.1" stroke-dasharray="0.6 0.6" opacity="0.4"/><circle cx="42.5" cy="3.5" r="1.6" fill="#05100c" stroke="#9aa0aa" stroke-width="0.25"/><circle cx="42.5" cy="3.5" r="4" fill="none" stroke="#9aa0aa" stroke-width="0.1" stroke-dasharray="0.6 0.6" opacity="0.4"/><circle cx="3.5" cy="30.5" r="1.6" fill="#05100c" stroke="#9aa0aa" stroke-width="0.25"/><circle cx="3.5" cy="30.5" r="4" fill="none" stroke="#9aa0aa" stroke-width="0.1" stroke-dasharray="0.6 0.6" opacity="0.4"/><circle cx="42.5" cy="30.5" r="1.6" fill="#05100c" stroke="#9aa0aa" stroke-width="0.25"/><circle cx="42.5" cy="30.5" r="4" fill="none" stroke="#9aa0aa" stroke-width="0.1" stroke-dasharray="0.6 0.6" opacity="0.4"/><g><rect x="5" y="14" width="1" height="1" fill="#1f4dfd" opacity="0.14"/><rect x="0" y="15" width="1" height="1" fill="#1f4ffd" opacity="0.14"/><rect x="1" y="15" width="1" height="1" fill="#1f4efd" opacity="0.14"/><rect x="4" y="15" width="1" height="1" fill="#1f4ffd" opacity="0.14"/><rect x="5" y="15" width="1" height="1" fill="#1f53fc" opacity="0.15"/><rect x="6" y="15" width="1" height="1" fill="#1e4dfd" opacity="0.13"/><rect x="34" y="15" width="1" height="1" fill="#1f53fc" opacity="0.15"/><rect x="35" y="15" width="1" height="1" fill="#1f70f9" opacity="0.2"/><rect x="36" y="15" width="1" height="1" fill="#1f56fc" opacity="0.15"/><rect x="0" y="16" width="1" height="1" fill="#1f56fc" opacity="0.15"/><rect x="1" y="16" width="1" height="1" fill="#1f52fc" opacity="0.14"/><rect x="2" y="16" width="1" height="1" fill="#1f4ffd" opacity="0.14"/><rect x="3" y="16" width="1" height="1" fill="#1f52fc" opacity="0.14"/><rect x="4" y="16" width="1" height="1" fill="#1f54fc" opacity="0.15"/><rect x="5" y="16" width="1" height="1" fill="#1f57fc" opacity="0.15"/><rect x="6" y="16" width="1" height="1" fill="#1f54fc" opacity="0.15"/><rect x="7" y="16" width="1" height="1" fill="#1f51fc" opacity="0.14"/><rect x="34" y="16" width="1" height="1" fill="#1f60fb" opacity="0.17"/><rect x="35" y="16" width="1" height="1" fill="#7fd8a3" opacity="0.5"/><rect x="36" y="16" width="1" height="1" fill="#1f70f9" opacity="0.2"/><rect x="0" y="17" width="1" height="1" fill="#1f61fb" opacity="0.17"/><rect x="1" y="17" width="1" height="1" fill="#1f55fc" opacity="0.15"/><rect x="2" y="17" width="1" height="1" fill="#1f59fc" opacity="0.16"/><rect x="3" y="17" width="1" height="1" fill="#1f5cfb" opacity="0.16"/><rect x="4" y="17" width="1" height="1" fill="#1f5dfb" opacity="0.16"/><rect x="5" y="17" width="1" height="1" fill="#1f5dfb" opacity="0.16"/><rect x="6" y="17" width="1" height="1" fill="#1f5efb" opacity="0.17"/><rect x="7" y="17" width="1" height="1" fill="#1f5cfb" opacity="0.16"/><rect x="8" y="17" width="1" height="1" fill="#1f54fc" opacity="0.15"/><rect x="9" y="17" width="1" height="1" fill="#1f56fc" opacity="0.15"/><rect x="10" y="17" width="1" height="1" fill="#1f53fc" opacity="0.15"/><rect x="11" y="17" width="1" height="1" fill="#1f4efd" opacity="0.14"/><rect x="34" y="17" width="1" height="1" fill="#1f53fc" opacity="0.15"/><rect x="35" y="17" width="1" height="1" fill="#1f70f9" opacity="0.2"/><rect x="36" y="17" width="1" height="1" fill="#1f56fc" opacity="0.15"/><rect x="0" y="18" width="1" height="1" fill="#1f73f9" opacity="0.2"/><rect x="1" y="18" width="1" height="1" fill="#1f62fb" opacity="0.17"/><rect x="2" y="18" width="1" height="1" fill="#1f70f9" opacity="0.2"/><rect x="3" y="18" width="1" height="1" fill="#1f72f9" opacity="0.2"/><rect x="4" y="18" width="1" height="1" fill="#1f72f9" opacity="0.2"/><rect x="5" y="18" width="1" height="1" fill="#1f72f9" opacity="0.2"/><rect x="6" y="18" width="1" height="1" fill="#1f72f9" opacity="0.2"/><rect x="7" y="18" width="1" height="1" fill="#1f73f9" opacity="0.21"/><rect x="8" y="18" width="1" height="1" fill="#1f6bfa" opacity="0.19"/><rect x="9" y="18" width="1" height="1" fill="#1f67fa" opacity="0.18"/><rect x="10" y="18" width="1" height="1" fill="#1f5ffb" opacity="0.17"/><rect x="11" y="18" width="1" height="1" fill="#1f54fc" opacity="0.15"/><rect x="0" y="19" width="1" height="1" fill="#208ef6" opacity="0.25"/><rect x="1" y="19" width="1" height="1" fill="#2093f5" opacity="0.26"/><rect x="2" y="19" width="1" height="1" fill="#21a1f4" opacity="0.29"/><rect x="3" y="19" width="1" height="1" fill="#21a1f4" opacity="0.29"/><rect x="4" y="19" width="1" height="1" fill="#21a1f4" opacity="0.29"/><rect x="5" y="19" width="1" height="1" fill="#21a1f4" opacity="0.29"/><rect x="6" y="19" width="1" height="1" fill="#21a1f4" opacity="0.29"/><rect x="7" y="19" width="1" height="1" fill="#21a3f3" opacity="0.29"/><rect x="8" y="19" width="1" height="1" fill="#21a7f3" opacity="0.3"/><rect x="9" y="19" width="1" height="1" fill="#2087f6" opacity="0.24"/><rect x="10" y="19" width="1" height="1" fill="#1f68fa" opacity="0.18"/><rect x="11" y="19" width="1" height="1" fill="#1f56fc" opacity="0.15"/><rect x="12" y="19" width="1" height="1" fill="#1f50fd" opacity="0.14"/><rect x="0" y="20" width="1" height="1" fill="#21a2f3" opacity="0.29"/><rect x="1" y="20" width="1" height="1" fill="#88d99b" opacity="0.51"/><rect x="2" y="20" width="1" height="1" fill="#88d99b" opacity="0.51"/><rect x="3" y="20" width="1" height="1" fill="#88d99b" opacity="0.51"/><rect x="4" y="20" width="1" height="1" fill="#88d99b" opacity="0.51"/><rect x="5" y="20" width="1" height="1" fill="#88d99b" opacity="0.51"/><rect x="6" y="20" width="1" height="1" fill="#97da8f" opacity="0.53"/><rect x="7" y="20" width="1" height="1" fill="#88d99b" opacity="0.51"/><rect x="8" y="20" width="1" height="1" fill="#b2db79" opacity="0.56"/><rect x="9" y="20" width="1" height="1" fill="#21a7f3" opacity="0.3"/><rect x="10" y="20" width="1" height="1" fill="#1f6df9" opacity="0.19"/><rect x="11" y="20" width="1" height="1" fill="#1f56fc" opacity="0.15"/><rect x="12" y="20" width="1" height="1" fill="#1f4ffd" opacity="0.14"/><rect x="13" y="20" width="1" height="1" fill="#1f4dfd" opacity="0.14"/><rect x="0" y="21" width="1" height="1" fill="#21b0f2" opacity="0.32"/><rect x="1" y="21" width="1" height="1" fill="#88d99b" opacity="0.51"/><rect x="2" y="21" width="1" height="1" fill="#22c6ef" opacity="0.36"/><rect x="3" y="21" width="1" height="1" fill="#2099f4" opacity="0.27"/><rect x="4" y="21" width="1" height="1" fill="#208df6" opacity="0.25"/><rect x="5" y="21" width="1" height="1" fill="#208ff6" opacity="0.26"/><rect x="6" y="21" width="1" height="1" fill="#21a6f3" opacity="0.3"/><rect x="7" y="21" width="1" height="1" fill="#3fd5d7" opacity="0.42"/><rect x="8" y="21" width="1" height="1" fill="#b2db79" opacity="0.56"/><rect x="9" y="21" width="1" height="1" fill="#21b7f1" opacity="0.33"/><rect x="10" y="21" width="1" height="1" fill="#207ef7" opacity="0.22"/><rect x="11" y="21" width="1" height="1" fill="#1f61fb" opacity="0.17"/><rect x="12" y="21" width="1" height="1" fill="#1f53fc" opacity="0.15"/><rect x="13" y="21" width="1" height="1" fill="#1f4ffd" opacity="0.14"/><rect x="14" y="21" width="1" height="1" fill="#1f4dfd" opacity="0.14"/><rect x="0" y="22" width="1" height="1" fill="#21a9f3" opacity="0.3"/><rect x="1" y="22" width="1" height="1" fill="#acdb7d" opacity="0.56"/><rect x="2" y="22" width="1" height="1" fill="#2092f5" opacity="0.26"/><rect x="3" y="22" width="1" height="1" fill="#2076f8" opacity="0.21"/><rect x="4" y="22" width="1" height="1" fill="#1f71f9" opacity="0.2"/><rect x="5" y="22" width="1" height="1" fill="#207cf8" opacity="0.22"/><rect x="6" y="22" width="1" height="1" fill="#2091f5" opacity="0.26"/><rect x="7" y="22" width="1" height="1" fill="#3cd5d8" opacity="0.41"/><rect x="8" y="22" width="1" height="1" fill="#b2db79" opacity="0.56"/><rect x="9" y="22" width="1" height="1" fill="#21b7f1" opacity="0.33"/><rect x="10" y="22" width="1" height="1" fill="#207ef7" opacity="0.22"/><rect x="11" y="22" width="1" height="1" fill="#1f61fb" opacity="0.17"/><rect x="12" y="22" width="1" height="1" fill="#1f58fc" opacity="0.15"/><rect x="13" y="22" width="1" height="1" fill="#1f53fc" opacity="0.15"/><rect x="14" y="22" width="1" height="1" fill="#1f4ffd" opacity="0.14"/><rect x="0" y="23" width="1" height="1" fill="#2097f5" opacity="0.27"/><rect x="1" y="23" width="1" height="1" fill="#26d3eb" opacity="0.39"/><rect x="2" y="23" width="1" height="1" fill="#2077f8" opacity="0.21"/><rect x="3" y="23" width="1" height="1" fill="#1f6afa" opacity="0.19"/><rect x="4" y="23" width="1" height="1" fill="#1f65fa" opacity="0.18"/><rect x="5" y="23" width="1" height="1" fill="#2094f5" opacity="0.27"/><rect x="6" y="23" width="1" height="1" fill="#a5db83" opacity="0.55"/><rect x="7" y="23" width="1" height="1" fill="#88d99b" opacity="0.51"/><rect x="8" y="23" width="1" height="1" fill="#b2db79" opacity="0.56"/><rect x="9" y="23" width="1" height="1" fill="#21a7f3" opacity="0.3"/><rect x="10" y="23" width="1" height="1" fill="#1f6df9" opacity="0.19"/><rect x="11" y="23" width="1" height="1" fill="#1f67fa" opacity="0.18"/><rect x="12" y="23" width="1" height="1" fill="#1f61fb" opacity="0.17"/><rect x="13" y="23" width="1" height="1" fill="#1f58fc" opacity="0.15"/><rect x="14" y="23" width="1" height="1" fill="#1e4dfd" opacity="0.13"/><rect x="0" y="24" width="1" height="1" fill="#21a9f3" opacity="0.3"/><rect x="1" y="24" width="1" height="1" fill="#a3db85" opacity="0.54"/><rect x="2" y="24" width="1" height="1" fill="#2090f5" opacity="0.26"/><rect x="3" y="24" width="1" height="1" fill="#1f70f9" opacity="0.2"/><rect x="4" y="24" width="1" height="1" fill="#1f71f9" opacity="0.2"/><rect x="5" y="24" width="1" height="1" fill="#2086f7" opacity="0.24"/><rect x="6" y="24" width="1" height="1" fill="#21acf2" opacity="0.31"/><rect x="7" y="24" width="1" height="1" fill="#208cf6" opacity="0.25"/><rect x="8" y="24" width="1" height="1" fill="#21a4f3" opacity="0.3"/><rect x="9" y="24" width="1" height="1" fill="#208af6" opacity="0.25"/><rect x="10" y="24" width="1" height="1" fill="#2075f8" opacity="0.21"/><rect x="11" y="24" width="1" height="1" fill="#1f6afa" opacity="0.19"/><rect x="12" y="24" width="1" height="1" fill="#1f5ffb" opacity="0.17"/><rect x="13" y="24" width="1" height="1" fill="#1f50fd" opacity="0.14"/><rect x="0" y="25" width="1" height="1" fill="#21b4f1" opacity="0.32"/><rect x="1" y="25" width="1" height="1" fill="#88d99b" opacity="0.51"/><rect x="2" y="25" width="1" height="1" fill="#2098f5" opacity="0.27"/><rect x="3" y="25" width="1" height="1" fill="#2084f7" opacity="0.24"/><rect x="4" y="25" width="1" height="1" fill="#208df6" opacity="0.25"/><rect x="5" y="25" width="1" height="1" fill="#21aaf3" opacity="0.31"/><rect x="6" y="25" width="1" height="1" fill="#21a5f3" opacity="0.3"/><rect x="7" y="25" width="1" height="1" fill="#207ef7" opacity="0.22"/><rect x="8" y="25" width="1" height="1" fill="#208af6" opacity="0.25"/><rect x="9" y="25" width="1" height="1" fill="#208bf6" opacity="0.25"/><rect x="10" y="25" width="1" height="1" fill="#2076f8" opacity="0.21"/><rect x="11" y="25" width="1" height="1" fill="#1f5ffb" opacity="0.17"/><rect x="12" y="25" width="1" height="1" fill="#1f4ffd" opacity="0.14"/><rect x="0" y="26" width="1" height="1" fill="#22d0ee" opacity="0.37"/><rect x="1" y="26" width="1" height="1" fill="#b2db79" opacity="0.56"/><rect x="2" y="26" width="1" height="1" fill="#22c9ef" opacity="0.36"/><rect x="3" y="26" width="1" height="1" fill="#23d3ed" opacity="0.38"/><rect x="4" y="26" width="1" height="1" fill="#94da91" opacity="0.53"/><rect x="5" y="26" width="1" height="1" fill="#d4dd5d" opacity="0.61"/><rect x="6" y="26" width="1" height="1" fill="#3dd5d8" opacity="0.41"/><rect x="7" y="26" width="1" height="1" fill="#4ad5ce" opacity="0.43"/><rect x="8" y="26" width="1" height="1" fill="#22cbef" opacity="0.37"/><rect x="9" y="26" width="1" height="1" fill="#2088f6" opacity="0.24"/><rect x="10" y="26" width="1" height="1" fill="#1f5cfb" opacity="0.16"/><rect x="11" y="26" width="1" height="1" fill="#1f4ffd" opacity="0.14"/><rect x="0" y="27" width="1" height="1" fill="#2ad3e7" opacity="0.39"/><rect x="1" y="27" width="1" height="1" fill="#b2db79" opacity="0.56"/><rect x="2" y="27" width="1" height="1" fill="#2097f5" opacity="0.27"/><rect x="3" y="27" width="1" height="1" fill="#21acf2" opacity="0.31"/><rect x="4" y="27" width="1" height="1" fill="#ff6f30" opacity="0.84"/><rect x="5" y="27" width="1" height="1" fill="#ff9634" opacity="0.78"/><rect x="6" y="27" width="1" height="1" fill="#ff9333" opacity="0.78"/><rect x="7" y="27" width="1" height="1" fill="#ff2a2a" opacity="0.9"/><rect x="8" y="27" width="1" height="1" fill="#ff622f" opacity="0.86"/><rect x="9" y="27" width="1" height="1" fill="#21acf2" opacity="0.31"/><rect x="10" y="27" width="1" height="1" fill="#1f58fc" opacity="0.16"/><rect x="0" y="28" width="1" height="1" fill="#2ad3e8" opacity="0.39"/><rect x="1" y="28" width="1" height="1" fill="#b2db79" opacity="0.56"/><rect x="2" y="28" width="1" height="1" fill="#21bff0" opacity="0.34"/><rect x="3" y="28" width="1" height="1" fill="#5ed7bd" opacity="0.46"/><rect x="4" y="28" width="1" height="1" fill="#ff5d2e" opacity="0.87"/><rect x="5" y="28" width="1" height="1" fill="#ff7e31" opacity="0.82"/><rect x="6" y="28" width="1" height="1" fill="#cbdd64" opacity="0.6"/><rect x="7" y="28" width="1" height="1" fill="#2ad3e8" opacity="0.39"/><rect x="8" y="28" width="1" height="1" fill="#21b2f2" opacity="0.32"/><rect x="9" y="28" width="1" height="1" fill="#2087f6" opacity="0.24"/><rect x="10" y="28" width="1" height="1" fill="#1f60fb" opacity="0.17"/><rect x="11" y="28" width="1" height="1" fill="#1e4dfd" opacity="0.13"/><rect x="0" y="29" width="1" height="1" fill="#21b7f1" opacity="0.33"/><rect x="1" y="29" width="1" height="1" fill="#b2db79" opacity="0.56"/><rect x="2" y="29" width="1" height="1" fill="#88d99b" opacity="0.51"/><rect x="3" y="29" width="1" height="1" fill="#ffbf37" opacity="0.71"/><rect x="4" y="29" width="1" height="1" fill="#ff2d2a" opacity="0.9"/><rect x="5" y="29" width="1" height="1" fill="#ff8532" opacity="0.81"/><rect x="6" y="29" width="1" height="1" fill="#2fd4e3" opacity="0.4"/><rect x="7" y="29" width="1" height="1" fill="#21b0f2" opacity="0.32"/><rect x="8" y="29" width="1" height="1" fill="#1f72f9" opacity="0.2"/><rect x="9" y="29" width="1" height="1" fill="#1f5efb" opacity="0.17"/><rect x="10" y="29" width="1" height="1" fill="#1f4efd" opacity="0.14"/><rect x="0" y="30" width="1" height="1" fill="#21a2f3" opacity="0.29"/><rect x="1" y="30" width="1" height="1" fill="#21b4f1" opacity="0.32"/><rect x="2" y="30" width="1" height="1" fill="#2089f6" opacity="0.24"/><rect x="3" y="30" width="1" height="1" fill="#22c8ef" opacity="0.36"/><rect x="4" y="30" width="1" height="1" fill="#aedb7c" opacity="0.56"/><rect x="5" y="30" width="1" height="1" fill="#ff9133" opacity="0.79"/><rect x="6" y="30" width="1" height="1" fill="#22ccef" opacity="0.37"/><rect x="7" y="30" width="1" height="1" fill="#208cf6" opacity="0.25"/><rect x="8" y="30" width="1" height="1" fill="#208df6" opacity="0.25"/><rect x="9" y="30" width="1" height="1" fill="#2075f8" opacity="0.21"/><rect x="10" y="30" width="1" height="1" fill="#1f56fc" opacity="0.15"/><rect x="0" y="31" width="1" height="1" fill="#2086f7" opacity="0.24"/><rect x="1" y="31" width="1" height="1" fill="#207ff7" opacity="0.23"/><rect x="2" y="31" width="1" height="1" fill="#1f73f9" opacity="0.2"/><rect x="3" y="31" width="1" height="1" fill="#2086f7" opacity="0.24"/><rect x="4" y="31" width="1" height="1" fill="#219ef4" opacity="0.28"/><rect x="5" y="31" width="1" height="1" fill="#219bf4" opacity="0.28"/><rect x="6" y="31" width="1" height="1" fill="#219ff4" opacity="0.29"/><rect x="7" y="31" width="1" height="1" fill="#2078f8" opacity="0.21"/><rect x="8" y="31" width="1" height="1" fill="#2075f8" opacity="0.21"/><rect x="9" y="31" width="1" height="1" fill="#207af8" opacity="0.22"/><rect x="10" y="31" width="1" height="1" fill="#1f6bfa" opacity="0.19"/><rect x="11" y="31" width="1" height="1" fill="#1f5cfb" opacity="0.16"/><rect x="12" y="31" width="1" height="1" fill="#1f51fc" opacity="0.14"/><rect x="0" y="32" width="1" height="1" fill="#1f61fb" opacity="0.17"/><rect x="1" y="32" width="1" height="1" fill="#1f60fb" opacity="0.17"/><rect x="2" y="32" width="1" height="1" fill="#1f56fc" opacity="0.15"/><rect x="3" y="32" width="1" height="1" fill="#1f6cf9" opacity="0.19"/><rect x="4" y="32" width="1" height="1" fill="#1f62fb" opacity="0.17"/><rect x="5" y="32" width="1" height="1" fill="#1f66fa" opacity="0.18"/><rect x="6" y="32" width="1" height="1" fill="#207ff7" opacity="0.23"/><rect x="7" y="32" width="1" height="1" fill="#1f68fa" opacity="0.18"/><rect x="8" y="32" width="1" height="1" fill="#1f5efb" opacity="0.17"/><rect x="9" y="32" width="1" height="1" fill="#1f6df9" opacity="0.19"/><rect x="10" y="32" width="1" height="1" fill="#1f67fa" opacity="0.18"/><rect x="11" y="32" width="1" height="1" fill="#1f52fc" opacity="0.14"/><rect x="0" y="33" width="1" height="1" fill="#207ef7" opacity="0.22"/><rect x="1" y="33" width="1" height="1" fill="#1f67fa" opacity="0.18"/><rect x="2" y="33" width="1" height="1" fill="#2085f7" opacity="0.24"/><rect x="3" y="33" width="1" height="1" fill="#1f5cfb" opacity="0.16"/><rect x="4" y="33" width="1" height="1" fill="#1f6afa" opacity="0.19"/><rect x="5" y="33" width="1" height="1" fill="#1f67fa" opacity="0.18"/><rect x="6" y="33" width="1" height="1" fill="#1f5afb" opacity="0.16"/><rect x="7" y="33" width="1" height="1" fill="#1f60fb" opacity="0.17"/><rect x="8" y="33" width="1" height="1" fill="#1f61fb" opacity="0.17"/><rect x="9" y="33" width="1" height="1" fill="#1f69fa" opacity="0.19"/><rect x="10" y="33" width="1" height="1" fill="#1f6cf9" opacity="0.19"/><rect x="11" y="33" width="1" height="1" fill="#1f6bfa" opacity="0.19"/><rect x="12" y="33" width="1" height="1" fill="#1f66fa" opacity="0.18"/><rect x="13" y="33" width="1" height="1" fill="#1f5bfb" opacity="0.16"/><rect x="14" y="33" width="1" height="1" fill="#1f4ffd" opacity="0.14"/></g><g opacity="0.7"><rect x="34.99" y="10.83" width="8.65" height="8.65" fill="none" stroke="#aab0c0" stroke-width="0.08"/><text x="39.31" y="15.15" font-size="0.8" fill="#c8ccd4" text-anchor="middle" dominant-baseline="central">U1</text><rect x="23.94" y="3.19" width="12.5" height="6.5" fill="none" stroke="#aab0c0" stroke-width="0.08"/><text x="30.19" y="6.44" font-size="0.8" fill="#c8ccd4" text-anchor="middle" dominant-baseline="central">ANT1</text><rect x="2.54" y="29" width="3.4" height="3" fill="none" stroke="#aab0c0" stroke-width="0.08"/><text x="4.24" y="30.5" font-size="0.8" fill="#c8ccd4" text-anchor="middle" dominant-baseline="central">U2</text><rect x="2" y="20.29" width="5.5" height="5.5" fill="none" stroke="#aab0c0" stroke-width="0.08"/><text x="4.75" y="23.04" font-size="0.8" fill="#c8ccd4" text-anchor="middle" dominant-baseline="central">L1</text><rect x="2" y="27.05" width="3.4" height="1.75" fill="none" stroke="#aab0c0" stroke-width="0.08"/><text x="3.7" y="27.92" font-size="0.8" fill="#c8ccd4" text-anchor="middle" dominant-baseline="central">C1</text><rect x="36.69" y="1.18" width="1.75" height="3.4" fill="none" stroke="#aab0c0" stroke-width="0.08"/><text x="37.56" y="2.88" font-size="0.8" fill="#c8ccd4" text-anchor="middle" dominant-baseline="central">C2</text><rect x="41.2" y="3.06" width="2.8" height="1.35" fill="none" stroke="#aab0c0" stroke-width="0.08"/><text x="42.6" y="3.74" font-size="0.8" fill="#c8ccd4" text-anchor="middle" dominant-baseline="central">U3</text><rect x="39.27" y="2" width="1.95" height="1.05" fill="none" stroke="#aab0c0" stroke-width="0.08"/><text x="40.24" y="2.53" font-size="0.8" fill="#c8ccd4" text-anchor="middle" dominant-baseline="central">C3</text><rect x="37.28" y="5.19" width="1.05" height="1.95" fill="none" stroke="#aab0c0" stroke-width="0.08"/><text x="37.81" y="6.16" font-size="0.8" fill="#c8ccd4" text-anchor="middle" dominant-baseline="central">C4</text><rect x="40.6" y="6.35" width="3.1" height="3.7" fill="none" stroke="#aab0c0" stroke-width="0.08"/><text x="42.15" y="8.2" font-size="0.8" fill="#c8ccd4" text-anchor="middle" dominant-baseline="central">Y1</text><rect x="6.54" y="26.37" width="5.58" height="3.1" fill="none" stroke="#aab0c0" stroke-width="0.08"/><text x="9.33" y="27.92" font-size="0.8" fill="#c8ccd4" text-anchor="middle" dominant-baseline="central">J1</text><rect x="38.49" y="3.58" width="1.95" height="1.05" fill="none" stroke="#aab0c0" stroke-width="0.08"/><text x="39.47" y="4.11" font-size="0.8" fill="#c8ccd4" text-anchor="middle" dominant-baseline="central">R1</text><rect x="38.63" y="4.73" width="1.95" height="1.05" fill="none" stroke="#aab0c0" stroke-width="0.08"/><text x="39.61" y="5.26" font-size="0.8" fill="#c8ccd4" text-anchor="middle" dominant-baseline="central">R2</text></g><text x="0.5" y="-1.4" font-size="1.6" fill="#e6e9f0" font-weight="bold">progressive damped-wave EMI field (physics-inspired validation)</text><rect x="0.5" y="0.3" width="45" height="12.5" fill="#0b1020" opacity="0.82" stroke="#2a3040" stroke-width="0.1"/><text x="1.1" y="1.5" font-size="1.1" fill="#e6e9f0" font-weight="bold">progressive_damped_wave_2p5d</text><text x="1.1" y="3" font-size="0.9" fill="#9aa0aa">cellMm   risk    peak</text><text x="1.1" y="4.5" font-size="0.9" fill="#c8ccd4">4     1.57    3.76</text><text x="1.1" y="6" font-size="0.9" fill="#c8ccd4">2     1.46    3.58</text><text x="1.1" y="7.5" font-size="0.9" fill="#c8ccd4">1     1.34    3.32</text><text x="1.1" y="9" font-size="0.9" fill="#22d3ee">converged (Δ 8.08%)</text><text x="1.1" y="10.5" font-size="0.9" fill="#ff5a5a">hottest victim: XTAL2</text></svg>